<svg xmlns="http://www.w3.org/2000/svg" width="29.254" height="39.005" viewBox="0 0 29.254 39.005"><defs><style>.a,.b{fill:#3f94fd;}.b{opacity:0.6;}</style></defs><g transform="translate(-64)"><g transform="translate(64)"><g transform="translate(0)"><path class="a" d="M93.016,8.364,84.89.238A.812.812,0,0,0,84.315,0H67.25A3.254,3.254,0,0,0,64,3.25v32.5a3.254,3.254,0,0,0,3.25,3.25H90a3.254,3.254,0,0,0,3.25-3.25V8.939A.812.812,0,0,0,93.016,8.364Zm-7.888-5.59L90.48,8.126H86.753A1.627,1.627,0,0,1,85.128,6.5Zm6.5,32.98A1.627,1.627,0,0,1,90,37.38H67.25a1.627,1.627,0,0,1-1.625-1.625V3.25A1.627,1.627,0,0,1,67.25,1.625H83.5V6.5a3.254,3.254,0,0,0,3.25,3.25h4.876Z" transform="translate(-64)"/><path class="a" d="M146.69,298.667H128.813a.813.813,0,1,0,0,1.625H146.69a.813.813,0,1,0,0-1.625Z" transform="translate(-123.124 -275.914)"/><path class="b" d="M146.69,234.667H128.813a.813.813,0,1,0,0,1.625H146.69a.813.813,0,1,0,0-1.625Z" transform="translate(-123.124 -216.79)"/><path class="b" d="M146.69,362.667H128.813a.813.813,0,1,0,0,1.625H146.69a.813.813,0,1,0,0-1.625Z" transform="translate(-123.124 -335.038)"/><path class="b" d="M138.564,426.667h-9.751a.813.813,0,0,0,0,1.625h9.751a.813.813,0,0,0,0-1.625Z" transform="translate(-123.124 -394.163)"/><path class="a" d="M234.667,171.479a.812.812,0,0,0,.813.813h9.751a.813.813,0,0,0,0-1.625H235.48A.812.812,0,0,0,234.667,171.479Z" transform="translate(-221.665 -157.664)"/><path class="a" d="M130.438,81.979h-1.625a.813.813,0,0,0,0,1.625h.813a.813.813,0,1,0,1.625,0v-.15a2.432,2.432,0,0,0-.813-4.726.813.813,0,1,1,0-1.625h1.625a.813.813,0,0,0,0-1.625h-.813a.813.813,0,1,0-1.625,0v.15a2.432,2.432,0,0,0,.813,4.726.813.813,0,1,1,0,1.625Z" transform="translate(-123.124 -68.977)"/></g></g></g></svg>