<svg xmlns="http://www.w3.org/2000/svg" width="30" height="30" viewBox="0 0 30 30"><defs><style>.a,.b{fill:#3f94fd;}.b{opacity:0.6;}</style></defs><path class="a" d="M279,282.1a2.346,2.346,0,0,0,2.344,2.344H284.1a2.346,2.346,0,0,0,2.344-2.344v-2.754A2.346,2.346,0,0,0,284.1,277h-2.754A2.346,2.346,0,0,0,279,279.344Zm2.344-2.754H284.1V282.1h-2.755Z" transform="translate(-262.652 -260.77)"/><circle class="b" cx="1.176" cy="1.176" r="1.176" transform="translate(21.176 11.176)"/><circle class="b" cx="1.176" cy="1.176" r="1.176" transform="translate(16.471 11.176)"/><path class="a" d="M28.828,20.625A1.172,1.172,0,0,0,30,19.453V7.031a4.693,4.693,0,0,0-4.687-4.688H23.789V1.172a1.172,1.172,0,0,0-2.344,0V2.344H16.113V1.172a1.172,1.172,0,1,0-2.344,0V2.344H8.5V1.172a1.172,1.172,0,1,0-2.344,0V2.344H4.688A4.693,4.693,0,0,0,0,7.031V25.313A4.693,4.693,0,0,0,4.688,30H25.313A4.693,4.693,0,0,0,30,25.313a1.172,1.172,0,0,0-2.344,0,2.346,2.346,0,0,1-2.344,2.344H4.688a2.346,2.346,0,0,1-2.344-2.344V7.031A2.346,2.346,0,0,1,4.688,4.688H6.152V5.859a1.172,1.172,0,1,0,2.344,0V4.688H13.77V5.859a1.172,1.172,0,1,0,2.344,0V4.688h5.332V5.859a1.172,1.172,0,0,0,2.344,0V4.688h1.523a2.346,2.346,0,0,1,2.344,2.344V19.453A1.172,1.172,0,0,0,28.828,20.625Z"/><circle class="b" cx="1.176" cy="1.176" r="1.176" transform="translate(5.882 21.176)"/><circle class="b" cx="1.176" cy="1.176" r="1.176" transform="translate(5.882 11.176)"/><circle class="b" cx="1.176" cy="1.176" r="1.176" transform="translate(5.882 16.471)"/><circle class="b" cx="1.176" cy="1.176" r="1.176" transform="translate(11.176 16.471)"/><circle class="b" cx="1.176" cy="1.176" r="1.176" transform="translate(11.176 11.176)"/><circle class="b" cx="1.176" cy="1.176" r="1.176" transform="translate(11.176 21.176)"/></svg>