<svg xmlns="http://www.w3.org/2000/svg" width="14.823" height="19.003" viewBox="0 0 14.823 19.003">
  <g id="Group_164" data-name="Group 164" transform="translate(549.01 209.01)">
    <path id="Path_393" data-name="Path 393" d="M-482.3-203.882v.25q0,5.344-.005,10.688a1.019,1.019,0,0,1-.074.41.548.548,0,0,1-.565.293c-1.322,0-2.644,0-3.966,0l-7.21,0c-.508,0-.7-.2-.7-.707q0-7.677,0-15.354c0-.5.2-.708.705-.708h6.67v.257q0,2.078,0,4.156c0,.517.2.714.719.715h4.431Zm-6.274,6.372h0q1.717,0,3.433,0a.55.55,0,0,0,.613-.554.562.562,0,0,0-.62-.552q-3.433,0-6.867,0a.559.559,0,0,0-.613.56.551.551,0,0,0,.62.548Zm0,1.119q-1.7,0-3.392,0a.611.611,0,0,0-.531.207.525.525,0,0,0-.076.577.57.57,0,0,0,.566.335h4.453c.813,0,1.626,0,2.438,0a.575.575,0,0,0,.586-.454.541.541,0,0,0-.32-.606,1,1,0,0,0-.352-.054C-486.33-196.392-487.454-196.391-488.578-196.391Zm0-3.336h1.95c.516,0,1.032.006,1.548,0a.557.557,0,0,0,.557-.552.554.554,0,0,0-.549-.558c-.049,0-.1,0-.148,0l-3.795,0c-.989,0-1.979,0-2.968,0a.6.6,0,0,0-.511.2.522.522,0,0,0-.08.576.567.567,0,0,0,.562.34Q-490.3-199.728-488.581-199.727Zm-2.145-2.236c.423,0,.846,0,1.269,0a.549.549,0,0,0,.617-.547.555.555,0,0,0-.609-.559q-1.28,0-2.56,0a.561.561,0,0,0-.619.552.549.549,0,0,0,.611.555C-491.586-201.961-491.156-201.963-490.726-201.963Z" transform="translate(-51.887)" fill="#3f94fd"/>
    <path id="Path_394" data-name="Path 394" d="M-547.82-156.255v.26q0,6.806,0,13.612a1.684,1.684,0,0,0,1.767,1.777q4.58,0,9.159,0h.394a6.128,6.128,0,0,1-.005.667.536.536,0,0,1-.5.446c-.063.006-.127,0-.191,0H-548.3c-.505,0-.706-.2-.706-.7q0-7.686,0-15.371c0-.494.2-.689.7-.69Z" transform="translate(0 -50.518)" fill="#3f94fd"/>
    <path id="Path_395" data-name="Path 395" d="M-294.71-205.434l3.783,3.875.064-.032a1.668,1.668,0,0,1-.169.017c-1.165,0-2.331,0-3.5,0-.129,0-.208-.011-.207-.177.006-1.18,0-2.359,0-3.539A1.2,1.2,0,0,1-294.71-205.434Z" transform="translate(-243.49 -3.425)" fill="#3f94fd"/>
  </g>
</svg>
