<svg xmlns="http://www.w3.org/2000/svg" width="48.332" height="45.157" viewBox="0 0 48.332 45.157"><defs><style>.a{fill:#2292dc;}</style></defs><g transform="translate(0 0)"><g transform="translate(0 0)"><path class="a" d="M48.295,33.88a.713.713,0,0,0-.045-.246,1.234,1.234,0,0,0-.487-.687l-6.919-4.809V22.982a1.238,1.238,0,0,0-1.238-1.238h-7.96l-6.772-4.708a1.237,1.237,0,0,0-1.41,0l-6.816,4.711H8.725a1.238,1.238,0,0,0-1.238,1.238v5.095l-6.952,4.8a1.235,1.235,0,0,0-.533,1c0,.007,0,.014,0,.022L.037,60.735a1.237,1.237,0,0,0,1.238,1.236h0L47.1,61.908a1.238,1.238,0,0,0,1.236-1.239Zm-7.45-2.727L44.8,33.9l-3.955,2.75ZM24.167,19.558l3.144,2.186H21ZM9.963,24.22H38.369V38.372L28.832,45l-3.889-3.016-.017-.012a1.237,1.237,0,0,0-1.5.012l-3.917,3.038-9.546-6.6ZM7.487,31.086v5.63L3.414,33.9ZM2.479,36.265,17.457,46.616,2.509,58.21ZM4.9,59.491,24.185,44.53,43.4,59.438Zm25.985-12.9L45.822,36.205l.03,22Z" transform="translate(0 -16.814)"/></g></g><g transform="translate(14.549 12.357)"><path class="a" d="M172.119,147.713H155.36a1.238,1.238,0,0,0,0,2.475h16.759a1.238,1.238,0,0,0,0-2.475Z" transform="translate(-154.122 -147.713)"/></g><g transform="translate(14.549 18.793)"><path class="a" d="M172.119,215.9H155.36a1.238,1.238,0,0,0,0,2.475h16.759a1.238,1.238,0,0,0,0-2.475Z" transform="translate(-154.122 -215.895)"/></g></svg>