<svg xmlns="http://www.w3.org/2000/svg" width="41.775" height="41.776" viewBox="0 0 41.775 41.776"><defs><style>.a{fill:#2292dc;}</style></defs><g transform="translate(0 0.852)"><path class="a" d="M40.191,42.278l-8.186-8.186a2.509,2.509,0,0,0-3.544,0l-2.129,2.129a2.507,2.507,0,0,0-.634,2.467l-.8.8h0c-.57.571-4.122-.305-8.416-4.6s-5.169-7.844-4.6-8.416h0l.8-.8a2.508,2.508,0,0,0,2.467-.634l2.129-2.129a2.509,2.509,0,0,0,0-3.544L9.094,11.181a2.506,2.506,0,0,0-3.544,0L3.422,13.31a2.507,2.507,0,0,0-.634,2.467s-.681.687-.715.731C-.192,19.025-.616,22.988.885,27.726A35.707,35.707,0,0,0,9.808,41.564a35.711,35.711,0,0,0,13.838,8.924,17.318,17.318,0,0,0,5.19.883,8.631,8.631,0,0,0,6.311-2.338l.447-.447a2.515,2.515,0,0,0,.7.1,2.49,2.49,0,0,0,1.772-.734l2.129-2.129A2.509,2.509,0,0,0,40.191,42.278ZM7.322,12.953l8.186,8.186-2.127,2.13h0l-.031-.031L9.287,19.174,5.194,15.081ZM33.376,47.26h0c-1.8,1.8-4.989,2.1-8.972.838A33.184,33.184,0,0,1,11.58,39.792,33.182,33.182,0,0,1,3.274,26.969C2.012,22.986,2.309,19.8,4.112,18h0l.226-.226,6.353,6.353-.583.583h0c-2.414,2.417.487,7.845,4.6,11.958,3.079,3.079,6.894,5.478,9.632,5.478a3.164,3.164,0,0,0,2.328-.879h0l.582-.582L33.6,47.034Zm2.915-1.082L28.1,37.993l2.129-2.129,8.186,8.186S36.291,46.179,36.291,46.178Z" transform="translate(-0.002 -10.447)"/></g><g transform="translate(21.55 6.355)"><path class="a" d="M274.293,81.587a12.534,12.534,0,0,0-8.922-3.7,1.253,1.253,0,1,0,0,2.506,10.111,10.111,0,0,1,10.111,10.111,1.253,1.253,0,1,0,2.506,0A12.535,12.535,0,0,0,274.293,81.587Z" transform="translate(-264.118 -77.891)"/></g><g transform="translate(21.55)"><path class="a" d="M278.781,5.557A18.849,18.849,0,0,0,265.365,0a1.253,1.253,0,0,0,0,2.506,16.467,16.467,0,0,1,16.467,16.467,1.253,1.253,0,0,0,2.506,0A18.848,18.848,0,0,0,278.781,5.557Z" transform="translate(-264.112)"/></g><g transform="translate(21.55 12.711)"><path class="a" d="M269.8,157.617a6.137,6.137,0,0,0-4.427-1.834h0a1.253,1.253,0,0,0,0,2.506h0a3.634,3.634,0,0,1,2.655,1.1,3.681,3.681,0,0,1,1.1,2.655,1.253,1.253,0,0,0,1.253,1.253h0a1.253,1.253,0,0,0,1.253-1.253A6.139,6.139,0,0,0,269.8,157.617Z" transform="translate(-264.121 -155.783)"/></g></svg>