<svg xmlns="http://www.w3.org/2000/svg" width="40.97" height="54.619" viewBox="0 0 40.97 54.619"><defs><style>.a{fill:#2292dc;}</style></defs><g transform="translate(0 0)"><g transform="translate(0 0)"><path class="a" d="M104.815,52.7l-7.2-15.232a1.348,1.348,0,0,0-.691-.664L93.34,35.2l6.207-10.4c.015-.025.029-.05.042-.076a17,17,0,0,0-3.2-19.833A16.993,16.993,0,0,0,69.328,24.726c.013.026.027.051.042.076l6.207,10.4-3.6,1.6a1.347,1.347,0,0,0-.67.655L64.1,52.7A1.348,1.348,0,0,0,65.87,54.5l9.021-4.016,9.02,4.016a1.349,1.349,0,0,0,1.1,0l9.02-4.016,9.02,4.016a1.347,1.347,0,0,0,1.766-1.807ZM71.708,23.459A14.136,14.136,0,0,1,70.165,16.9,14.366,14.366,0,0,1,84.256,2.7,14.3,14.3,0,0,1,97.21,23.459L85.617,42.89a1.348,1.348,0,0,1-2.315,0ZM94.576,47.78a1.349,1.349,0,0,0-1.1,0L84.459,51.8l-9.02-4.016a1.349,1.349,0,0,0-1.1,0l-6.249,2.782,5.434-11.494,3.441-1.531,4.018,6.735a4.043,4.043,0,0,0,6.944,0l4.018-6.735,3.442,1.532,5.434,11.494Z" transform="translate(-63.974 0)"/></g><g transform="translate(14.334 10.839)"><path class="a" d="M204.5,101.607a6.151,6.151,0,1,0,6.151,6.151A6.158,6.158,0,0,0,204.5,101.607Zm0,9.606a3.456,3.456,0,1,1,3.456-3.456A3.459,3.459,0,0,1,204.5,111.213Z" transform="translate(-198.345 -101.607)"/></g></g></svg>