<?xml version="1.0" ?><svg height="20" version="1.1" viewBox="0 0 20 20" width="20" xmlns="http://www.w3.org/2000/svg"><g id="layer1"><path d="M 3 0 L 3 12 L 4 12 L 4 1 L 12 1 L 12 4 L 12 5 L 16 5 L 16 12 L 17 12 L 17 5 L 17 4 L 13 0 L 12 0 L 3 0 z M 13 1.3535156 L 15.646484 4 L 13 4 L 13 1.3535156 z M 4 13 L 4 16 L 3.9921875 16.130859 L 3.9667969 16.257812 L 3.9238281 16.382812 L 3.8652344 16.5 L 3.7929688 16.607422 L 3.7070312 16.707031 L 3.609375 16.792969 L 3.5 16.865234 L 3.3828125 16.923828 L 3.2597656 16.964844 L 3.1308594 16.992188 L 3 17 L 2.8691406 16.992188 L 2.7402344 16.964844 L 2.6171875 16.923828 L 2.5 16.865234 L 2.390625 16.792969 L 2.2929688 16.707031 L 2.2070312 16.607422 L 2.1347656 16.5 L 2.0761719 16.382812 L 2.0332031 16.257812 L 2.0078125 16.130859 L 2 16 L 1 16 L 1.0078125 16.183594 L 1.0351562 16.367188 L 1.0761719 16.546875 L 1.1347656 16.722656 L 1.2089844 16.890625 L 1.3007812 17.052734 L 1.4042969 17.205078 L 1.5214844 17.347656 L 1.6523438 17.478516 L 1.7949219 17.595703 L 1.9472656 17.699219 L 2.1074219 17.791016 L 2.2773438 17.865234 L 2.453125 17.923828 L 2.6328125 17.964844 L 2.8164062 17.992188 L 3 18 L 3.1835938 17.992188 L 3.3671875 17.964844 L 3.546875 17.923828 L 3.7226562 17.865234 L 3.8925781 17.791016 L 4.0527344 17.699219 L 4.2050781 17.595703 L 4.3476562 17.478516 L 4.4785156 17.347656 L 4.5957031 17.205078 L 4.6992188 17.052734 L 4.7910156 16.890625 L 4.8652344 16.722656 L 4.9238281 16.546875 L 4.9648438 16.367188 L 4.9921875 16.183594 L 5 16 L 5 13 L 4 13 z M 6 13 L 6 18 L 7 18 L 7 16 L 8.5 16 L 8.65625 15.992188 L 8.8125 15.966797 L 8.9628906 15.925781 L 9.109375 15.869141 L 9.25 15.798828 L 9.3828125 15.712891 L 9.5039062 15.615234 L 9.6152344 15.503906 L 9.7128906 15.380859 L 9.7988281 15.25 L 9.8691406 15.109375 L 9.9257812 14.962891 L 9.9667969 14.8125 L 9.9921875 14.65625 L 10 14.5 L 9.9921875 14.34375 L 9.9667969 14.1875 L 9.9257812 14.037109 L 9.8691406 13.890625 L 9.7988281 13.75 L 9.7128906 13.617188 L 9.6152344 13.496094 L 9.5039062 13.384766 L 9.3828125 13.287109 L 9.25 13.201172 L 9.109375 13.128906 L 8.9628906 13.072266 L 8.8125 13.033203 L 8.65625 13.007812 L 8.5 13 L 6 13 z M 11 13 L 11 14 L 11 15 L 11 16 L 11 17 L 11 18 L 15 18 L 15 17 L 12 17 L 12 16 L 14 16 L 14 15 L 12 15 L 12 14 L 15 14 L 15 13 L 12 13 L 11 13 z M 18 13 L 17.816406 13.007812 L 17.632812 13.033203 L 17.453125 13.076172 L 17.277344 13.134766 L 17.107422 13.208984 L 16.947266 13.298828 L 16.794922 13.404297 L 16.652344 13.521484 L 16.521484 13.652344 L 16.404297 13.794922 L 16.300781 13.947266 L 16.208984 14.107422 L 16.134766 14.277344 L 16.076172 14.451172 L 16.035156 14.632812 L 16.007812 14.816406 L 16 15 L 16 16 L 16.007812 16.183594 L 16.035156 16.367188 L 16.076172 16.546875 L 16.134766 16.722656 L 16.208984 16.890625 L 16.300781 17.052734 L 16.404297 17.205078 L 16.521484 17.347656 L 16.652344 17.478516 L 16.794922 17.595703 L 16.947266 17.699219 L 17.107422 17.791016 L 17.277344 17.865234 L 17.453125 17.923828 L 17.632812 17.964844 L 17.816406 17.992188 L 18 18 L 18.183594 17.992188 L 18.367188 17.964844 L 18.546875 17.923828 L 18.722656 17.865234 L 18.892578 17.791016 L 19.052734 17.699219 L 19.205078 17.595703 L 19.347656 17.478516 L 19.478516 17.347656 L 19.595703 17.205078 L 19.699219 17.052734 L 19.791016 16.890625 L 19.865234 16.722656 L 19.923828 16.546875 L 19.964844 16.367188 L 19.992188 16.183594 L 20 16 L 20 15 L 18 15 L 18 16 L 19 16 L 18.992188 16.130859 L 18.966797 16.257812 L 18.923828 16.382812 L 18.865234 16.5 L 18.792969 16.607422 L 18.707031 16.707031 L 18.609375 16.792969 L 18.5 16.865234 L 18.382812 16.923828 L 18.259766 16.964844 L 18.130859 16.992188 L 18 17 L 17.869141 16.992188 L 17.740234 16.964844 L 17.617188 16.923828 L 17.5 16.865234 L 17.390625 16.792969 L 17.292969 16.707031 L 17.207031 16.607422 L 17.134766 16.5 L 17.076172 16.382812 L 17.033203 16.257812 L 17.007812 16.130859 L 17 16 L 17 15 L 17.007812 14.869141 L 17.033203 14.740234 L 17.076172 14.617188 L 17.134766 14.5 L 17.207031 14.390625 L 17.292969 14.292969 L 17.390625 14.207031 L 17.5 14.134766 L 17.617188 14.076172 L 17.740234 14.033203 L 17.869141 14.007812 L 18 14 L 18.130859 14.007812 L 18.259766 14.033203 L 18.382812 14.076172 L 18.5 14.134766 L 18.609375 14.207031 L 18.707031 14.292969 L 19.414062 13.585938 L 19.347656 13.521484 L 19.205078 13.404297 L 19.052734 13.298828 L 18.892578 13.208984 L 18.722656 13.134766 L 18.546875 13.076172 L 18.367188 13.033203 L 18.183594 13.007812 L 18 13 z M 7 14 L 8.5 14 L 8.5917969 14.007812 L 8.6796875 14.033203 L 8.7636719 14.074219 L 8.8359375 14.130859 L 8.8984375 14.199219 L 8.9472656 14.277344 L 8.9804688 14.363281 L 8.9980469 14.453125 L 8.9980469 14.546875 L 8.9804688 14.636719 L 8.9472656 14.722656 L 8.8984375 14.800781 L 8.8359375 14.869141 L 8.7636719 14.925781 L 8.6796875 14.964844 L 8.5917969 14.990234 L 8.5 15 L 7 15 L 7 14 z M 3 19 L 3 20 L 17 20 L 17 19 L 16 19 L 4 19 L 3 19 z " style="fill:#222222; fill-opacity:1; stroke:none; stroke-width:0px;"/></g></svg>