<svg xmlns="http://www.w3.org/2000/svg" xmlns:xlink="http://www.w3.org/1999/xlink" width="19" height="19" viewBox="0 0 19 19"><defs><style>.a{fill:#fff;stroke:#707070;}.b{clip-path:url(#a);}.c{fill:#3f94fd;}.d{fill:#a2a5b9;}</style><clipPath id="a"><rect class="a" width="19" height="19" transform="translate(30 380)"/></clipPath></defs><g class="b" transform="translate(-30 -380)"><g transform="translate(385.912 1020.693)"><path class="c" d="M-345.028-632.7c.375.091.745.156,1.095.273a4.362,4.362,0,0,1,2.423,1.969.518.518,0,0,1,.1.4.518.518,0,0,1-.224.35.517.517,0,0,1-.421.051.517.517,0,0,1-.318-.28,3.511,3.511,0,0,0-3.123-1.749c-1.61-.011-3.22-.006-4.829,0a3.511,3.511,0,0,0-2.563,1.034,3.511,3.511,0,0,0-1.021,2.568q0,1.012,0,2.022v.364h7.384a.813.813,0,0,1,.426.121.437.437,0,0,1,.156.543.5.5,0,0,1-.511.343h-7.805c-.486,0-.66-.175-.658-.665,0-1.056-.022-2.115.028-3.17a4.426,4.426,0,0,1,3.308-4c.259-.066.522-.106.813-.165a4.506,4.506,0,0,1-1.623-3.953,4.3,4.3,0,0,1,1.49-2.9,4.482,4.482,0,0,1,6.228.238,4.529,4.529,0,0,1,1.254,3.382,4.529,4.529,0,0,1-1.615,3.226Zm-6.368-3.5a3.5,3.5,0,0,0,1.026,2.489,3.5,3.5,0,0,0,2.49,1.022,3.5,3.5,0,0,0,3.461-3.489,3.48,3.48,0,0,0-1.033-2.484,3.48,3.48,0,0,0-2.495-1.005A3.487,3.487,0,0,0-351.4-636.2Z"/><path class="d" d="M-134.883-373.554c-.124.135-.237.275-.367.4a.477.477,0,0,1-.348.151.477.477,0,0,1-.348-.151.463.463,0,0,1-.161-.345.463.463,0,0,1,.152-.349,4.6,4.6,0,0,1,.4-.343l-.4-.928h-.468a.532.532,0,0,1-.553-.5.521.521,0,0,1,.171-.377.521.521,0,0,1,.392-.134h.458l.395-.936c-.1-.085-.237-.187-.357-.306a.478.478,0,0,1-.182-.36.478.478,0,0,1,.158-.371.466.466,0,0,1,.361-.155.466.466,0,0,1,.351.176c.247.3.479.4.819.15a1.767,1.767,0,0,1,.445-.165c0-.18-.006-.357,0-.532a.484.484,0,0,1,.472-.489.446.446,0,0,1,.354.106.446.446,0,0,1,.152.337c-.059.5.18.673.6.824.245.087.392.12.543-.1a.8.8,0,0,1,.12-.121.49.49,0,0,1,.363-.176.49.49,0,0,1,.372.156.481.481,0,0,1,.148.362.481.481,0,0,1-.17.352c-.117.123-.244.237-.357.347l.383.9h.466a.52.52,0,0,1,.381.13.52.52,0,0,1,.174.363.523.523,0,0,1-.157.372.523.523,0,0,1-.375.15c-.169.007-.339,0-.492,0l-.388.92c.106.1.252.2.376.332a.479.479,0,0,1,.16.357.479.479,0,0,1-.16.357.488.488,0,0,1-.363.144.488.488,0,0,1-.352-.167c-.121-.119-.229-.252-.325-.359-.3.119-.553.213-.8.329a.251.251,0,0,0-.116.173c-.019.152,0,.31-.017.462a.486.486,0,0,1-.525.436.456.456,0,0,1-.339-.145.456.456,0,0,1-.121-.348c.048-.4-.069-.633-.483-.71a1.932,1.932,0,0,1-.432-.219Zm-.081-2.077a1.49,1.49,0,0,0,.44,1.057,1.49,1.49,0,0,0,1.061.432,1.506,1.506,0,0,0,1.482-1.52,1.49,1.49,0,0,0-.461-1.051,1.49,1.49,0,0,0-1.072-.411A1.475,1.475,0,0,0-134.964-375.631Z" transform="translate(-207.935 -249.564)"/></g></g></svg>