<svg xmlns="http://www.w3.org/2000/svg" width="16" height="16" viewBox="0 0 16 16"><defs><style>.a{fill:#3f94fd;}</style></defs><g transform="translate(0)"><path class="a" d="M14.125,1.25h-.75V0h-1.25V1.25H3.875V0H2.625V1.25h-.75A1.877,1.877,0,0,0,0,3.125v11A1.877,1.877,0,0,0,1.875,16h12.25A1.877,1.877,0,0,0,16,14.125v-11A1.877,1.877,0,0,0,14.125,1.25Zm.625,12.875a.626.626,0,0,1-.625.625H1.875a.626.626,0,0,1-.625-.625V5.875h13.5Zm0-9.5H1.25v-1.5A.626.626,0,0,1,1.875,2.5h.75V3.75h1.25V2.5h8.25V3.75h1.25V2.5h.75a.626.626,0,0,1,.625.625Z" transform="translate(0)"/></g><g transform="translate(2.375 7.187)"><rect class="a" width="1.25" height="1.25"/></g><g transform="translate(4.875 7.187)"><rect class="a" width="1.25" height="1.25"/></g><g transform="translate(7.375 7.187)"><rect class="a" width="1.25" height="1.25"/></g><g transform="translate(9.875 7.187)"><rect class="a" width="1.25" height="1.25"/></g><g transform="translate(12.375 7.187)"><rect class="a" width="1.25" height="1.25"/></g><g transform="translate(2.375 9.687)"><rect class="a" width="1.25" height="1.25"/></g><g transform="translate(4.875 9.687)"><rect class="a" width="1.25" height="1.25"/></g><g transform="translate(7.375 9.687)"><rect class="a" width="1.25" height="1.25"/></g><g transform="translate(9.875 9.687)"><rect class="a" width="1.25" height="1.25"/></g><g transform="translate(2.375 12.187)"><rect class="a" width="1.25" height="1.25"/></g><g transform="translate(4.875 12.187)"><rect class="a" width="1.25" height="1.25"/></g><g transform="translate(7.375 12.187)"><rect class="a" width="1.25" height="1.25"/></g><g transform="translate(9.875 12.187)"><rect class="a" width="1.25" height="1.25"/></g><g transform="translate(12.375 9.687)"><rect class="a" width="1.25" height="1.25"/></g></svg>