<svg xmlns="http://www.w3.org/2000/svg" xmlns:xlink="http://www.w3.org/1999/xlink" width="19" height="19" viewBox="0 0 19 19"><defs><style>.a,.c{fill:#a2a5b9;}.a{stroke:#707070;}.b{clip-path:url(#a);}.d{fill:#3f94fd;}</style><clipPath id="a"><rect class="a" width="19" height="19" transform="translate(30 247)"/></clipPath></defs><g class="b" transform="translate(-30 -247)"><g transform="translate(-128 16.177)"><g transform="translate(159 232)"><path class="c" d="M172.2,234.247h3.371a.28.28,0,0,0,.281-.279h0v-1.685a.28.28,0,0,0-.279-.281H172.2a.28.28,0,0,0-.281.279v.563h-1.4a.28.28,0,0,0-.281.279v2.53h-.843v-.562a.28.28,0,0,0-.279-.281h-3.371a.28.28,0,0,0-.281.279v.563h-1.4a.28.28,0,0,0-.281.279v4.215h-.843v-.561a.28.28,0,0,0-.279-.281h-3.371a.28.28,0,0,0-.281.279v1.687a.28.28,0,0,0,.279.281h3.372a.28.28,0,0,0,.281-.279v-.563h.843v5.617a.28.28,0,0,0,.279.281h1.4v.561a.28.28,0,0,0,.279.281h3.372a.28.28,0,0,0,.281-.279v-.563h1.124v1.124a.28.28,0,0,0,.279.281h1.126v.561a.28.28,0,0,0,.279.281h3.372a.28.28,0,0,0,.279-.281h0v-1.685a.28.28,0,0,0-.279-.281H172.2a.28.28,0,0,0-.281.279v.563h-.843V245.2h.843v.561a.28.28,0,0,0,.279.281h3.372a.28.28,0,0,0,.281-.279h0v-1.685a.28.28,0,0,0-.279-.281H172.2a.28.28,0,0,0-.281.279v.563H170.8a.28.28,0,0,0-.281.279v1.126h-1.123v-.562a.28.28,0,0,0-.279-.281h-3.372a.28.28,0,0,0-.281.279v.563h-1.123v-3.651h1.123v.561a.28.28,0,0,0,.279.281h3.372a.28.28,0,0,0,.281-.279v-.563h2.528v.561a.28.28,0,0,0,.279.281h3.372a.28.28,0,0,0,.28-.28h0v-1.685a.28.28,0,0,0-.279-.281H172.2a.28.28,0,0,0-.281.279v.563h-2.528v-.561a.28.28,0,0,0-.279-.281h-3.371a.28.28,0,0,0-.281.279v.563h-1.123v-5.617h1.123v.561a.28.28,0,0,0,.279.281h3.372a.28.28,0,0,0,.281-.279v-.563h.843v2.528a.28.28,0,0,0,.279.281h1.406v.561a.28.28,0,0,0,.279.281h3.372a.28.28,0,0,0,.28-.28h0V237.9a.28.28,0,0,0-.279-.281H172.2a.28.28,0,0,0-.281.279v.563H170.8v-2.247h1.124v.561a.28.28,0,0,0,.279.281h3.372a.28.28,0,0,0,.28-.28h0v-1.685a.28.28,0,0,0-.279-.281H172.2a.28.28,0,0,0-.281.279v.563H170.8V233.4h1.124v.561a.28.28,0,0,0,.279.281Zm.281-1.685h2.809v1.124h-2.809Zm-10.112,8.426h-2.809v-1.123h2.809Zm10.112,6.18h2.809v1.124h-2.809Zm0-2.809h2.809v1.124h-2.809Zm-6.46,1.4h2.809v1.124h-2.809Zm6.46-4.213h2.809v1.124h-2.809Zm-6.46,0h2.809v1.124h-2.809Zm2.809-5.056h-2.809v-1.124h2.809Zm3.652,1.685h2.809V239.3h-2.81Zm0-2.809h2.809v1.124h-2.81Z" transform="translate(-159 -232)"/></g><g transform="translate(160.685 237.617)"><rect class="d" width="0.561" height="0.561"/></g><g transform="translate(160.685 236.494)"><rect class="d" width="0.561" height="0.561"/></g><g transform="translate(159.561 236.494)"><rect class="d" width="0.561" height="0.561"/></g><g transform="translate(161.809 236.494)"><rect class="d" width="0.561" height="0.561"/></g><g transform="translate(160.685 242.673)"><rect class="d" width="0.561" height="0.561"/></g><g transform="translate(160.685 243.797)"><rect class="d" width="0.561" height="0.561"/></g><g transform="translate(161.809 243.797)"><rect class="d" width="0.561" height="0.561"/></g><g transform="translate(159.561 243.797)"><rect class="d" width="0.561" height="0.561"/></g><path class="d" d="M170.215,242.415a.279.279,0,0,0-.279-.281h-3.372a.28.28,0,0,0-.281.278V244.1a.281.281,0,0,0,.279.281h3.372a.28.28,0,0,0,.281-.279v-1.687Zm-.561,1.4h-2.809V242.7h2.809Z" transform="translate(-0.823 -1.145)"/><path class="d" d="M170.215,235.448a.28.28,0,0,0-.279-.282h-3.372a.281.281,0,0,0-.281.279v1.687a.282.282,0,0,0,.279.282h3.372a.28.28,0,0,0,.281-.279v-1.687Zm-.561,1.4h-2.809v-1.124h2.809Z" transform="translate(-0.823 -0.358)"/><path class="d" d="M177.5,245.581a.282.282,0,0,0-.279-.282h-3.371a.28.28,0,0,0-.281.279v1.687a.28.28,0,0,0,.279.282h3.373a.281.281,0,0,0,.281-.279v-1.687Zm-.561,1.4h-2.809v-1.124h2.809Z" transform="translate(-1.646 -1.503)"/><path class="d" d="M177.5,235.448a.282.282,0,0,0-.279-.282h-3.371a.28.28,0,0,0-.281.279v1.687a.28.28,0,0,0,.279.282h3.373a.281.281,0,0,0,.281-.279v-1.687Zm-.561,1.4h-2.809v-1.124h2.809Z" transform="translate(-1.646 -0.358)"/></g></g></svg>