<svg xmlns="http://www.w3.org/2000/svg" width="14.055" height="17.89" viewBox="0 0 14.055 17.89"><defs><style>.a{fill:#3f94fd;}</style></defs><g transform="translate(-47.037 0)"><g transform="translate(47.037 0)"><g transform="translate(0 0)"><path class="a" d="M59.3,2.344H57.685V1.62c0-.234-.256-.341-.49-.341H55.939A1.9,1.9,0,0,0,54.043,0a1.938,1.938,0,0,0-1.9,1.278H50.913c-.234,0-.469.106-.469.341v.724H48.826a1.81,1.81,0,0,0-1.789,1.725v12.2a1.713,1.713,0,0,0,1.789,1.618H59.3a1.713,1.713,0,0,0,1.789-1.618V4.069A1.81,1.81,0,0,0,59.3,2.344ZM51.3,2.131h1.171a.469.469,0,0,0,.4-.383A1.235,1.235,0,0,1,54.043.79a1.214,1.214,0,0,1,1.15.958.469.469,0,0,0,.426.383h1.214v1.7H51.3Zm8.944,14.14a.864.864,0,0,1-.937.767H48.826a.864.864,0,0,1-.937-.767V4.069a.958.958,0,0,1,.937-.873h1.618V4.282a.447.447,0,0,0,.469.4H57.2a.468.468,0,0,0,.49-.4V3.2H59.3a.958.958,0,0,1,.937.873v12.2Z" transform="translate(-47.037 0)"/><path class="a" d="M102.635,230.444a.426.426,0,0,0-.6-.021l-1.363,1.3-.575-.6a.426.426,0,0,0-.6-.021.447.447,0,0,0,0,.618l.873.894a.383.383,0,0,0,.3.128.426.426,0,0,0,.3-.128l1.661-1.576a.4.4,0,0,0,.025-.572Z" transform="translate(-97.247 -220.924)"/><path class="a" d="M203.872,256.034h-4.9a.426.426,0,1,0,0,.852h4.9a.426.426,0,1,0,0-.852Z" transform="translate(-192.372 -245.598)"/><path class="a" d="M102.635,146.852a.426.426,0,0,0-.6-.021l-1.363,1.3-.575-.6a.426.426,0,0,0-.6-.021.447.447,0,0,0,0,.618l.873.894a.383.383,0,0,0,.3.128.426.426,0,0,0,.3-.128l1.661-1.576a.4.4,0,0,0,.025-.572Z" transform="translate(-97.247 -140.739)"/><path class="a" d="M203.872,172.442h-4.9a.426.426,0,0,0,0,.852h4.9a.426.426,0,1,0,0-.852Z" transform="translate(-192.372 -165.413)"/><path class="a" d="M102.635,314.036a.426.426,0,0,0-.6-.021l-1.363,1.3-.575-.6a.426.426,0,0,0-.6-.021.447.447,0,0,0,0,.618l.873.894a.383.383,0,0,0,.3.128.426.426,0,0,0,.3-.128l1.661-1.576a.4.4,0,0,0,.025-.572Z" transform="translate(-97.247 -301.108)"/><path class="a" d="M203.872,339.626h-4.9a.426.426,0,1,0,0,.852h4.9a.426.426,0,1,0,0-.852Z" transform="translate(-192.372 -325.782)"/></g></g></g></svg>