<svg xmlns="http://www.w3.org/2000/svg" xmlns:xlink="http://www.w3.org/1999/xlink" width="19" height="19" viewBox="0 0 19 19"><defs><style>.a{fill:#fff;stroke:#707070;}.b{clip-path:url(#a);}.c{fill:#a2a5b9;}</style><clipPath id="a"><rect class="a" width="19" height="19" transform="translate(30 336)"/></clipPath></defs><g class="b" transform="translate(-30 -336)"><g transform="translate(30 336)"><path class="c" d="M18.629,7.746H16.251a.371.371,0,0,0-.371.371v1.87a.371.371,0,0,0,.742,0v-1.5h1.632v9.769H16.626V12.774a.371.371,0,0,0-.742,0v5.482h-.742V10.582a.371.371,0,0,0-.371-.371H12.393a.371.371,0,0,0-.371.371v7.682h-.741v-5.09a.371.371,0,0,0-.371-.371H8.532a.371.371,0,0,0-.371.371v5.084h-.74V15.3a.371.371,0,0,0-.371-.371H4.673A.371.371,0,0,0,4.3,15.3v2.955H1.113a.371.371,0,0,1-.371-.371V1.113A.371.371,0,0,1,1.113.742h9.574V3.191A1.114,1.114,0,0,0,11.8,4.3h2.449V8.869a.371.371,0,0,0,.742,0V3.933a.371.371,0,0,0-.108-.263L11.316.1a.371.371,0,0,0-.258-.1H1.113A1.114,1.114,0,0,0,0,1.113V17.887A1.114,1.114,0,0,0,1.113,19H18.629A.371.371,0,0,0,19,18.629V8.117a.371.371,0,0,0-.371-.371Zm-7.2-6.479,2.3,2.3H11.8a.371.371,0,0,1-.371-.371ZM6.68,18.258H5.047V15.674H6.68Zm3.859,0H8.907V13.545h1.632Zm3.859,0H12.766V10.947H14.4Z"/><g transform="translate(15.882 10.943)"><path class="c" d="M509.52,350.728a.371.371,0,1,0,.108.263.371.371,0,0,0-.108-.263Z" transform="translate(-508.886 -350.62)"/></g><g transform="translate(1.989 2.031)"><path class="c" d="M67.146,65.072a.371.371,0,0,0-.371.371v.665a3.414,3.414,0,1,0,3.764,3.764h.667a.371.371,0,0,0,.371-.371,4.437,4.437,0,0,0-4.431-4.429Zm0,7.1a2.67,2.67,0,0,1-.371-5.316V69.5a.371.371,0,0,0,.371.371h2.648a2.675,2.675,0,0,1-2.648,2.3Zm.371-3.041h0v-3.3a3.7,3.7,0,0,1,3.3,3.3Z" transform="translate(-63.732 -65.072)"/></g><g transform="translate(2.003 10.92)"><path class="c" d="M71.664,349.859H64.576a.371.371,0,0,0,0,.742h7.088a.371.371,0,1,0,0-.742Z" transform="translate(-64.205 -349.859)"/></g><g transform="translate(2.003 12.71)"><path class="c" d="M66.952,407.228H64.574a.371.371,0,0,0,0,.742h2.378a.371.371,0,0,0,0-.742Z" transform="translate(-64.205 -407.228)"/></g><g transform="translate(6.237 12.71)"><path class="c" d="M200.479,407.336a.371.371,0,1,0,.108.263.371.371,0,0,0-.108-.263Z" transform="translate(-199.845 -407.228)"/></g></g></g></svg>