<svg xmlns="http://www.w3.org/2000/svg" width="77.845" height="90.746" viewBox="0 0 77.845 90.746"><defs><style>.a{fill:#0f2757;}</style></defs><path class="a" d="M108.312,109.033a2.714,2.714,0,0,0-2.344-1.353H59.892a2.713,2.713,0,0,0-2.343,1.353l-3.288,5.7a1.331,1.331,0,0,0,2.306,1.331l2.532-4.386,9.61,16.646H49.488l4.063-7.038a1.331,1.331,0,0,0-2.306-1.331l-4.918,8.518a2.153,2.153,0,0,0,.259,2.515l34.7,38.863a2.159,2.159,0,0,0,1.608.72h0a2.159,2.159,0,0,0,1.607-.719l34.77-38.864a2.153,2.153,0,0,0,.26-2.516ZM85.739,128.319H73.32l9.61-16.646,9.611,16.646h-.115a1.331,1.331,0,0,0,0,2.662h.641L82.9,165.492,72.791,130.981H85.739a1.331,1.331,0,0,0,0-2.662Zm9.108-1.331-9.611-16.646h19.221Zm1,3.993H115.7L86.09,164.08Zm20.531-2.662H97.152l9.61-16.646ZM61.4,110.342H80.625l-9.61,16.646Zm8.613,20.639,9.695,33.1-29.557-33.1Z" transform="translate(-44.329 -88.595)"/><path class="a" d="M351.944,385.266a1.333,1.333,0,0,0-.2-.11,12.993,12.993,0,0,1-2.316-1.312,1.331,1.331,0,0,0-1.552,2.163,14.774,14.774,0,0,0,1.284.823,12.439,12.439,0,0,0-5.845,6.9,12.44,12.44,0,0,0-5.844-6.9,12.438,12.438,0,0,0,5.844-6.9l.041.12a1.331,1.331,0,0,0,2.514-.876c-.1-.29-.19-.592-.265-.9l-.553-2.26a1.789,1.789,0,0,0-3.475,0l-.553,2.26a10.243,10.243,0,0,1-6.139,6.872,1.332,1.332,0,0,0-.2.11,1.881,1.881,0,0,0,0,3.13,1.327,1.327,0,0,0,.2.11,10.243,10.243,0,0,1,6.139,6.872l.553,2.26a1.789,1.789,0,0,0,3.475,0l.553-2.26a10.243,10.243,0,0,1,6.139-6.872,1.349,1.349,0,0,0,.2-.11,1.881,1.881,0,0,0,0-3.131Z" transform="translate(-281.128 -308.256)"/><path class="a" d="M424.449,78.319a1.323,1.323,0,0,0-.2-.11,4.418,4.418,0,0,1-2.721-3.018l-.279-1.14h0a1.559,1.559,0,0,0-1.517-1.19h0a1.558,1.558,0,0,0-1.517,1.19l-.279,1.14a4.418,4.418,0,0,1-2.721,3.018,1.328,1.328,0,0,0-.2.11,1.608,1.608,0,0,0,0,2.677,1.331,1.331,0,0,0,.2.11,4.417,4.417,0,0,1,2.721,3.018l.279,1.139a1.558,1.558,0,0,0,1.517,1.191h0a1.558,1.558,0,0,0,1.517-1.19l.279-1.139a4.418,4.418,0,0,1,2.721-3.018,1.326,1.326,0,0,0,.2-.11,1.608,1.608,0,0,0,0-2.677Zm-4.717,3.253a6.874,6.874,0,0,0-1.746-1.915,6.872,6.872,0,0,0,1.746-1.915,6.875,6.875,0,0,0,1.746,1.915A6.87,6.87,0,0,0,419.733,81.572Z" transform="translate(-347.321 -59.947)"/><path class="a" d="M41.588,15.42l.4,1.632a1.662,1.662,0,0,0,3.228,0l.4-1.632a7.041,7.041,0,0,1,4.224-4.713,1.318,1.318,0,0,0,.2-.11,1.728,1.728,0,0,0,0-2.876,1.321,1.321,0,0,0-.2-.11A7.04,7.04,0,0,1,45.615,2.9l-.4-1.632a1.662,1.662,0,0,0-3.228,0l-.4,1.632a7.039,7.039,0,0,1-4.223,4.713,1.32,1.32,0,0,0-.2.11,1.728,1.728,0,0,0,0,2.876,1.34,1.34,0,0,0,.2.11A7.04,7.04,0,0,1,41.588,15.42ZM43.6,5.186a9.316,9.316,0,0,0,3.507,3.973A9.318,9.318,0,0,0,43.6,13.133a9.319,9.319,0,0,0-3.507-3.973A9.319,9.319,0,0,0,43.6,5.186Z" transform="translate(-36.395 0)"/></svg>