<svg xmlns="http://www.w3.org/2000/svg" xmlns:xlink="http://www.w3.org/1999/xlink" width="17" height="17" viewBox="0 0 17 17"><defs><style>.a,.c{fill:#3f94fd;}.a{stroke:#707070;}.b{clip-path:url(#a);}</style><clipPath id="a"><rect class="a" width="17" height="17" transform="translate(30.178 291.178)"/></clipPath></defs><g class="b" transform="translate(-30.178 -291.178)"><g transform="translate(30.844 291.84)"><path class="c" d="M-158.54,382.528v-.642c.017-.068.036-.134.049-.2a2.887,2.887,0,0,1,3.229-2.31,2.882,2.882,0,0,1,2.347,2.05,4.668,4.668,0,0,1,.119.9c.02.392,0,.784,0,1.176h4.169v-1.273a2.891,2.891,0,0,1,2.622-2.882,2.882,2.882,0,0,1,3.039,2.157c.032.126.062.254.092.38v.643a.623.623,0,0,0-.03.1,2.849,2.849,0,0,1-2.5,2.434c-.48.045-.968.023-1.452.032h-.177v4.169h1.248a2.88,2.88,0,0,1,2.832,2.212c.03.118.053.236.078.355v.642a.273.273,0,0,0-.029.067,2.879,2.879,0,0,1-2.218,2.407l-.294.067h-.642a.637.637,0,0,0-.1-.03,2.826,2.826,0,0,1-2.4-2.316,14.81,14.81,0,0,1-.065-1.6v-.217h-4.169v1.273a2.876,2.876,0,0,1-2.2,2.808c-.123.031-.246.056-.369.083H-156a.284.284,0,0,0-.067-.029,2.88,2.88,0,0,1-2.408-2.218c-.023-.1-.044-.2-.066-.294v-.642a.631.631,0,0,0,.03-.1,2.849,2.849,0,0,1,2.5-2.434c.48-.045.968-.024,1.452-.032h.177V385.1h-1.248a2.878,2.878,0,0,1-2.832-2.212C-158.491,382.768-158.513,382.647-158.54,382.528Zm5.755,6.725h4.152v-4.147h-4.152Zm2.072,1.054h2.463c.129,0,.164.037.162.164-.006.535,0,1.071,0,1.606a2.353,2.353,0,0,0,.76,1.793,2.353,2.353,0,0,0,1.851.606,2.374,2.374,0,0,0,2.023-1.8,2.359,2.359,0,0,0-1.015-2.5,2.523,2.523,0,0,0-1.408-.378h-9.468q-.237,0-.474.011a2.345,2.345,0,0,0-1.691.891,2.345,2.345,0,0,0-.466,1.854,2.346,2.346,0,0,0,2.656,1.912,2.332,2.332,0,0,0,1.986-2.157c.021-.611.014-1.224.012-1.835,0-.125.034-.164.163-.163l2.444,0Zm-3.663-6.254h-1.262a1.83,1.83,0,0,1-1.416-.64,1.83,1.83,0,0,1-.414-1.5,1.831,1.831,0,0,1,.87-1.267,1.831,1.831,0,0,1,1.529-.158,1.846,1.846,0,0,1,1.235,1.8v6.961h.513v-5.668c0-.5.008-1.01-.013-1.514a2.336,2.336,0,0,0-.886-1.7,2.336,2.336,0,0,0-1.859-.464,2.337,2.337,0,0,0-1.911,2.585,2.3,2.3,0,0,0,1.9,2.019,11.787,11.787,0,0,0,1.3.05h.418Zm7.342.49a12.781,12.781,0,0,0,1.61-.011,2.311,2.311,0,0,0,1.541-.877,2.311,2.311,0,0,0,.466-1.71,2.347,2.347,0,0,0-1.08-1.71,2.347,2.347,0,0,0-2.009-.236,2.344,2.344,0,0,0-1.584,2.3q0,3.4,0,6.793c0,.053.006.107.009.159h.5V387.11c0-1.612-.006-3.224,0-4.834a1.765,1.765,0,0,1,1.124-1.736,1.711,1.711,0,0,1,1.953.35,1.71,1.71,0,0,1,.49,1.884,1.712,1.712,0,0,1-1.524,1.251c-.438.048-.882.022-1.329.028h-.174Zm-7.342-1.037c0-.475.022-.944,0-1.41a1.275,1.275,0,0,0-1.3-1.177,1.3,1.3,0,0,0-1.275,1.2,1.291,1.291,0,0,0,1.118,1.384c.477.031.963.006,1.464.006Zm7.336.007h1.337a1.293,1.293,0,0,0,1.025-.556,1.293,1.293,0,0,0,.16-1.155,1.322,1.322,0,0,0-1.228-.882,1.3,1.3,0,0,0-1.227.887,1.388,1.388,0,0,0-.065.374c-.008.437,0,.883,0,1.333Zm-1.588.55h-4.15v.49h4.15Z" transform="translate(158.541 -379.339)"/><path class="c" d="M-151.105,419.263c.008.016.017.024.017.033-.008.7.021,1.4-.033,2.091a1.784,1.784,0,0,1-1.44,1.5,1.834,1.834,0,0,1-1.553-.414,1.834,1.834,0,0,1-.63-1.479,1.827,1.827,0,0,1,1.783-1.731c.6-.024,1.2-.006,1.8-.006a.26.26,0,0,1,.054.011Zm-.526.528c-.45,0-.892-.006-1.334,0a1.293,1.293,0,0,0-1.018.555,1.293,1.293,0,0,0-.164,1.148,1.32,1.32,0,0,0,1.421.882,1.291,1.291,0,0,0,1.087-1.084c.045-.494.011-.989.011-1.5Z" transform="translate(155.787 -408.285)"/><path class="c" d="M-118.63,419.267h.692c.453.006.909-.012,1.359.028a1.808,1.808,0,0,1,1.593,1.667,1.841,1.841,0,0,1-1.357,1.9,1.824,1.824,0,0,1-1.571-.3,1.825,1.825,0,0,1-.727-1.426c-.024-.6,0-1.2,0-1.8A.455.455,0,0,1-118.63,419.267Zm.523.54v1.336a1.3,1.3,0,0,0,.444.935,1.3,1.3,0,0,0,.986.313,1.316,1.316,0,0,0,1.161-1.23,1.291,1.291,0,0,0-.9-1.29,1.272,1.272,0,0,0-.343-.061c-.446-.01-.892,0-1.353,0Z" transform="translate(129.609 -408.297)"/></g></g></svg>