<svg xmlns="http://www.w3.org/2000/svg" width="73.845" height="73.845" viewBox="0 0 73.845 73.845"><defs><style>.a{fill:#0f2757;}</style></defs><g transform="translate(36.286 34.675)"><path class="a" d="M254.05,240.841a1.443,1.443,0,1,0,0,2.039A1.442,1.442,0,0,0,254.05,240.841Z" transform="translate(-251.587 -240.419)"/></g><g transform="translate(44.798 14.627)"><path class="a" d="M322.91,103.529a7.212,7.212,0,1,0,0,10.2A7.208,7.208,0,0,0,322.91,103.529Zm-2.04,8.159a4.327,4.327,0,1,1,0-6.119A4.333,4.333,0,0,1,320.871,111.688Z" transform="translate(-310.603 -101.415)"/></g><g transform="translate(13.848 0)"><g transform="translate(0 0)"><path class="a" d="M155.592.422A1.437,1.437,0,0,0,154.52,0,64.072,64.072,0,0,0,137.2,3.587,48.289,48.289,0,0,0,118.877,14.7c-1.067,1.067-2.106,2.2-3.1,3.374-4.709-2.772-8.482-1.9-10.868-.626-5.492,2.939-8.892,10.92-8.892,16.629a1.443,1.443,0,0,0,2.463,1.02,9.182,9.182,0,0,1,7.636-2.562l.505.505a50.731,50.731,0,0,0-2.382,7.005,4.083,4.083,0,0,0,.175,2.505A13.658,13.658,0,0,0,100.52,45.3c-3.713,3.713-4.466,12.761-4.5,13.144A1.442,1.442,0,0,0,97.46,60q.057,0,.114,0c.383-.03,9.432-.784,13.144-4.5a13.659,13.659,0,0,0,2.746-3.894,4.073,4.073,0,0,0,2.507.174,50.735,50.735,0,0,0,7-2.382l.505.505a9.182,9.182,0,0,1-2.562,7.636A1.442,1.442,0,0,0,121.938,60c5.709,0,13.689-3.4,16.629-8.892,1.277-2.385,2.146-6.158-.626-10.867,1.175-.993,2.307-2.032,3.374-3.1a48.292,48.292,0,0,0,11.113-18.323,64.072,64.072,0,0,0,3.586-17.321A1.442,1.442,0,0,0,155.592.422ZM99.243,30.975c.9-4.336,3.5-9.094,7.029-10.984,2.359-1.263,4.938-1.139,7.68.362a58.316,58.316,0,0,0-6.06,9.878,1.521,1.521,0,0,0-.763-.448A12.327,12.327,0,0,0,99.243,30.975Zm9.436,22.481c-1.983,1.983-6.635,3.029-9.576,3.456.427-2.941,1.473-7.592,3.456-9.575a10.394,10.394,0,0,1,3.693-2.427l4.854,4.854A10.392,10.392,0,0,1,108.679,53.455Zm6.575-4.475a1.353,1.353,0,0,1-1.26-.409l-2.825-2.825-3.725-3.725a1.354,1.354,0,0,1-.41-1.26,46.832,46.832,0,0,1,1.8-5.509L120.762,47.18A46.8,46.8,0,0,1,115.254,48.98Zm20.77.763c-1.89,3.531-6.648,6.133-10.983,7.029a12.276,12.276,0,0,0,1.182-7.921,1.506,1.506,0,0,0-.439-.728,58.338,58.338,0,0,0,9.878-6.06C137.162,44.8,137.286,47.384,136.024,49.743ZM139.275,35.1a52.348,52.348,0,0,1-4.16,3.731,55.412,55.412,0,0,1-11.5,7.127L110.058,32.4a55.4,55.4,0,0,1,7.127-11.5,52.341,52.341,0,0,1,3.732-4.16A44.973,44.973,0,0,1,137.312,6.618L149.4,18.7A44.97,44.97,0,0,1,139.275,35.1Zm11.159-19.437L140.354,5.58a64.843,64.843,0,0,1,12.656-2.574A64.854,64.854,0,0,1,150.435,15.661Z" transform="translate(-96.018 0)"/></g></g><g transform="translate(28.127 59.151)"><path class="a" d="M201.561,410.544a1.442,1.442,0,0,0-2.04,0l-4.079,4.08a1.442,1.442,0,1,0,2.04,2.039l4.079-4.08A1.442,1.442,0,0,0,201.561,410.544Z" transform="translate(-195.021 -410.121)"/></g><g transform="translate(7.729 38.754)"><path class="a" d="M60.134,269.124a1.442,1.442,0,0,0-2.04,0l-4.08,4.079a1.442,1.442,0,1,0,2.039,2.04l4.08-4.079A1.442,1.442,0,0,0,60.134,269.124Z" transform="translate(-53.592 -268.701)"/></g><g transform="translate(12.238 61.192)"><path class="a" d="M97.084,424.694a1.442,1.442,0,0,0-2.04,0l-9.77,9.769a1.442,1.442,0,0,0,2.04,2.04l9.77-9.769A1.442,1.442,0,0,0,97.084,424.694Z" transform="translate(-84.851 -424.271)"/></g><g transform="translate(0.7 61.192)"><path class="a" d="M17.084,424.694a1.442,1.442,0,0,0-2.04,0l-9.77,9.769a1.442,1.442,0,0,0,2.04,2.04l9.77-9.769A1.442,1.442,0,0,0,17.084,424.694Z" transform="translate(-4.851 -424.271)"/></g><g transform="translate(0 48.953)"><g transform="translate(0)"><path class="a" d="M12.232,339.832a1.442,1.442,0,0,0-2.04,0L.424,349.6a1.442,1.442,0,1,0,2.04,2.04l9.769-9.77A1.442,1.442,0,0,0,12.232,339.832Z" transform="translate(-0.001 -339.41)"/></g></g><g transform="translate(40.365 28.556)"><path class="a" d="M284.373,198.413a1.443,1.443,0,0,0-2.04,0l-2.039,2.039a1.442,1.442,0,1,0,2.04,2.04l2.039-2.039A1.443,1.443,0,0,0,284.373,198.413Z" transform="translate(-279.871 -197.99)"/></g></svg>