<svg xmlns="http://www.w3.org/2000/svg" width="14.752" height="17" viewBox="0 0 14.752 17"><defs><style>.a{fill:#3f94fd;}</style></defs><g transform="translate(0 0)"><path class="a" d="M91.291,8.189A4.206,4.206,0,0,0,94.3,6.99a3.887,3.887,0,0,0,1.248-2.9A3.887,3.887,0,0,0,94.3,1.2a4.38,4.38,0,0,0-6.022,0,3.887,3.887,0,0,0-1.248,2.895,3.887,3.887,0,0,0,1.248,2.9A4.207,4.207,0,0,0,91.291,8.189ZM89.012,1.9a3.314,3.314,0,0,1,4.557,0,2.9,2.9,0,0,1,.944,2.191,2.9,2.9,0,0,1-.944,2.191,3.313,3.313,0,0,1-4.557,0,2.9,2.9,0,0,1-.944-2.191A2.9,2.9,0,0,1,89.012,1.9Zm0,0" transform="translate(-84.026)"/><path class="a" d="M14.717,252.177a9.743,9.743,0,0,0-.143-1.074,8.194,8.194,0,0,0-.275-1.08,5.232,5.232,0,0,0-.462-1.007,3.818,3.818,0,0,0-.7-.872,3.09,3.09,0,0,0-1-.6,3.58,3.58,0,0,0-1.277-.222,1.326,1.326,0,0,0-.692.282c-.207.13-.45.281-.721.447a4.216,4.216,0,0,1-.933.4,3.761,3.761,0,0,1-2.282,0,4.2,4.2,0,0,1-.932-.4c-.268-.165-.511-.315-.722-.447a1.324,1.324,0,0,0-.692-.282,3.576,3.576,0,0,0-1.277.222,3.088,3.088,0,0,0-1,.6,3.82,3.82,0,0,0-.7.872,5.242,5.242,0,0,0-.462,1.007,8.214,8.214,0,0,0-.275,1.08,9.676,9.676,0,0,0-.143,1.075c-.023.325-.035.663-.035,1a2.767,2.767,0,0,0,.872,2.136,3.213,3.213,0,0,0,2.247.788h8.514a3.213,3.213,0,0,0,2.247-.788,2.766,2.766,0,0,0,.872-2.136c0-.343-.012-.68-.036-1Zm-1.551,2.418a2.165,2.165,0,0,1-1.533.513H3.119a2.165,2.165,0,0,1-1.533-.513,1.8,1.8,0,0,1-.55-1.414c0-.319.011-.633.033-.935a8.728,8.728,0,0,1,.13-.967,7.244,7.244,0,0,1,.242-.952,4.268,4.268,0,0,1,.376-.819,2.831,2.831,0,0,1,.512-.645,2.051,2.051,0,0,1,.665-.4,2.468,2.468,0,0,1,.816-.151c.036.019.1.054.206.12.213.133.459.286.73.452a5.237,5.237,0,0,0,1.171.5,4.836,4.836,0,0,0,2.92,0,5.245,5.245,0,0,0,1.172-.5c.278-.171.516-.319.729-.452.1-.066.169-.1.206-.12a2.47,2.47,0,0,1,.816.151,2.054,2.054,0,0,1,.665.4,2.823,2.823,0,0,1,.512.645,4.254,4.254,0,0,1,.376.819,7.227,7.227,0,0,1,.242.952,8.8,8.8,0,0,1,.13.968h0c.022.3.033.615.033.935a1.8,1.8,0,0,1-.55,1.414Zm0,0" transform="translate(0 -239.104)"/></g></svg>