<svg id="svg" version="1.1" xmlns="http://www.w3.org/2000/svg" xmlns:xlink="http://www.w3.org/1999/xlink" width="400" height="102.7027027027027" viewBox="0, 0, 400,102.7027027027027"><g id="svgg"><path id="path0" d="M96.883 0.108 C 96.681 0.152,96.470 0.333,96.413 0.511 C 96.357 0.688,96.241 0.833,96.155 0.833 C 96.070 0.833,96.000 0.946,96.000 1.083 C 96.000 1.221,95.925 1.333,95.833 1.333 C 95.742 1.333,95.667 1.483,95.667 1.667 C 95.667 1.850,95.592 2.000,95.500 2.000 C 95.408 2.000,95.333 2.112,95.333 2.250 C 95.333 2.387,95.258 2.500,95.167 2.500 C 95.075 2.500,95.000 2.610,95.000 2.744 C 95.000 2.879,94.698 3.535,94.328 4.203 C 93.959 4.870,93.417 5.904,93.125 6.500 C 92.833 7.096,92.535 7.608,92.464 7.639 C 92.392 7.669,92.333 7.838,92.333 8.014 C 92.333 8.190,92.275 8.333,92.203 8.333 C 92.132 8.333,91.928 8.708,91.750 9.167 C 91.572 9.625,91.368 10.000,91.297 10.000 C 91.225 10.000,91.167 10.150,91.167 10.333 C 91.167 10.517,91.092 10.667,91.000 10.667 C 90.908 10.667,90.833 10.817,90.833 11.000 C 90.833 11.183,90.776 11.333,90.706 11.333 C 90.572 11.333,90.000 12.550,90.000 12.834 C 90.000 12.926,89.925 13.000,89.833 13.000 C 89.742 13.000,89.667 13.150,89.667 13.333 C 89.667 13.517,89.592 13.667,89.500 13.667 C 89.408 13.667,89.333 13.817,89.333 14.000 C 89.333 14.183,89.258 14.333,89.167 14.333 C 89.075 14.333,89.000 14.446,89.000 14.583 C 89.000 14.721,88.933 14.833,88.852 14.833 C 88.770 14.833,88.655 15.096,88.594 15.417 C 88.534 15.737,88.432 16.000,88.366 16.000 C 88.301 16.000,88.142 16.244,88.013 16.542 C 87.883 16.840,87.603 17.344,87.389 17.664 C 87.175 17.983,87.000 18.377,87.000 18.539 C 87.000 18.701,86.943 18.833,86.874 18.833 C 86.805 18.833,86.642 19.077,86.512 19.375 C 86.383 19.673,86.233 19.954,86.180 20.000 C 86.009 20.148,85.500 21.337,85.500 21.589 C 85.500 21.723,85.425 21.833,85.333 21.833 C 85.242 21.833,85.167 21.946,85.167 22.083 C 85.167 22.221,85.092 22.333,85.000 22.333 C 84.908 22.333,84.833 22.483,84.833 22.667 C 84.833 22.850,84.776 23.000,84.706 23.000 C 84.551 23.000,84.000 24.237,84.000 24.584 C 84.000 24.721,83.925 24.833,83.833 24.833 C 83.742 24.833,83.667 24.946,83.667 25.083 C 83.667 25.221,83.592 25.333,83.500 25.333 C 83.408 25.333,83.333 25.483,83.333 25.667 C 83.333 25.850,83.276 26.000,83.206 26.000 C 83.051 26.000,82.500 27.237,82.500 27.584 C 82.500 27.721,82.425 27.833,82.333 27.833 C 82.242 27.833,82.167 27.946,82.167 28.083 C 82.167 28.221,82.092 28.333,82.000 28.333 C 81.908 28.333,81.833 28.477,81.833 28.653 C 81.833 28.828,81.777 28.997,81.708 29.028 C 81.640 29.058,81.362 29.533,81.090 30.083 C 80.819 30.633,80.557 31.121,80.507 31.167 C 80.304 31.354,79.500 33.016,79.500 33.249 C 79.500 33.387,79.439 33.500,79.364 33.500 C 79.290 33.500,79.126 33.762,79.000 34.083 C 78.874 34.404,78.710 34.667,78.636 34.667 C 78.561 34.667,78.500 34.817,78.500 35.000 C 78.500 35.183,78.428 35.333,78.341 35.333 C 78.253 35.333,78.133 35.596,78.072 35.917 C 78.012 36.237,77.910 36.500,77.846 36.500 C 77.782 36.500,77.626 36.762,77.500 37.083 C 77.374 37.404,77.210 37.667,77.136 37.667 C 77.061 37.667,77.000 37.817,77.000 38.000 C 77.000 38.183,76.928 38.333,76.841 38.333 C 76.753 38.333,76.633 38.596,76.572 38.917 C 76.512 39.237,76.410 39.500,76.346 39.500 C 76.282 39.500,76.126 39.762,76.000 40.083 C 75.874 40.404,75.710 40.667,75.636 40.667 C 75.561 40.667,75.500 40.817,75.500 41.000 C 75.500 41.183,75.425 41.333,75.333 41.333 C 75.242 41.333,75.167 41.416,75.167 41.516 C 75.167 41.724,74.652 42.873,74.502 43.000 C 74.448 43.046,74.182 43.533,73.910 44.083 C 73.639 44.633,73.360 45.108,73.292 45.139 C 73.223 45.169,73.167 45.338,73.167 45.514 C 73.167 45.690,73.106 45.833,73.031 45.833 C 72.957 45.833,72.793 46.096,72.667 46.417 C 72.541 46.737,72.385 47.000,72.321 47.000 C 72.256 47.000,72.155 47.262,72.094 47.583 C 72.034 47.904,71.913 48.167,71.826 48.167 C 71.738 48.167,71.667 48.317,71.667 48.500 C 71.667 48.683,71.592 48.833,71.500 48.833 C 71.408 48.833,71.333 48.946,71.333 49.083 C 71.333 49.221,71.258 49.333,71.167 49.333 C 71.075 49.333,71.000 49.483,71.000 49.667 C 71.000 49.850,70.933 50.000,70.852 50.000 C 70.770 50.000,70.655 50.262,70.594 50.583 C 70.534 50.904,70.413 51.167,70.326 51.167 C 70.238 51.167,70.167 51.317,70.167 51.500 C 70.167 51.683,70.092 51.833,70.000 51.833 C 69.908 51.833,69.833 51.946,69.833 52.083 C 69.833 52.221,69.758 52.333,69.667 52.333 C 69.575 52.333,69.500 52.483,69.500 52.667 C 69.500 52.850,69.433 53.000,69.352 53.000 C 69.270 53.000,69.155 53.262,69.094 53.583 C 69.034 53.904,68.913 54.167,68.826 54.167 C 68.738 54.167,68.667 54.317,68.667 54.500 C 68.667 54.683,68.592 54.833,68.500 54.833 C 68.408 54.833,68.333 54.946,68.333 55.083 C 68.333 55.221,68.275 55.333,68.203 55.333 C 68.132 55.333,67.928 55.708,67.750 56.167 C 67.572 56.625,67.368 57.000,67.297 57.000 C 67.225 57.000,67.167 57.112,67.167 57.250 C 67.167 57.387,67.092 57.500,67.000 57.500 C 66.908 57.500,66.833 57.650,66.833 57.833 C 66.833 58.017,66.776 58.167,66.706 58.167 C 66.572 58.167,66.000 59.383,66.000 59.668 C 66.000 59.759,65.925 59.833,65.833 59.833 C 65.742 59.833,65.667 59.983,65.667 60.167 C 65.667 60.350,65.592 60.500,65.500 60.500 C 65.408 60.500,65.333 60.650,65.333 60.833 C 65.333 61.017,65.258 61.167,65.167 61.167 C 65.075 61.167,65.000 61.279,65.000 61.417 C 65.000 61.554,64.925 61.667,64.833 61.667 C 64.742 61.667,64.667 61.802,64.667 61.968 C 64.667 62.134,64.557 62.415,64.422 62.593 C 64.287 62.771,64.175 63.048,64.172 63.208 C 64.169 63.369,64.092 63.500,64.000 63.500 C 63.908 63.500,63.833 63.650,63.833 63.833 C 63.833 64.017,63.758 64.167,63.667 64.167 C 63.575 64.167,63.500 64.279,63.500 64.417 C 63.500 64.554,63.425 64.667,63.333 64.667 C 63.242 64.667,63.164 64.798,63.161 64.958 C 63.158 65.119,63.046 65.396,62.911 65.574 C 62.777 65.751,62.667 66.033,62.667 66.199 C 62.667 66.364,62.592 66.500,62.500 66.500 C 62.408 66.500,62.333 66.650,62.333 66.833 C 62.333 67.017,62.258 67.167,62.167 67.167 C 62.075 67.167,62.000 67.279,62.000 67.417 C 62.000 67.554,61.925 67.667,61.833 67.667 C 61.742 67.667,61.667 67.817,61.667 68.000 C 61.667 68.183,61.598 68.333,61.513 68.333 C 61.429 68.333,61.310 68.558,61.250 68.833 C 61.190 69.108,61.085 69.333,61.018 69.333 C 60.951 69.333,60.793 69.596,60.667 69.917 C 60.541 70.237,60.377 70.500,60.302 70.500 C 60.228 70.500,60.180 70.556,60.197 70.625 C 60.237 70.794,59.615 72.069,59.458 72.139 C 59.390 72.169,59.333 72.332,59.333 72.500 C 59.333 72.668,59.274 72.831,59.202 72.861 C 59.040 72.930,58.167 74.712,58.167 74.975 C 58.167 75.080,58.092 75.167,58.000 75.167 C 57.908 75.167,57.833 75.310,57.833 75.486 C 57.833 75.662,57.774 75.831,57.702 75.861 C 57.540 75.930,56.667 77.712,56.667 77.975 C 56.667 78.080,56.592 78.167,56.500 78.167 C 56.408 78.167,56.333 78.317,56.333 78.500 C 56.333 78.683,56.258 78.833,56.167 78.833 C 56.075 78.833,56.000 78.946,56.000 79.083 C 56.000 79.221,55.925 79.333,55.833 79.333 C 55.742 79.333,55.667 79.483,55.667 79.667 C 55.667 79.850,55.592 80.000,55.500 80.000 C 55.408 80.000,55.333 80.117,55.333 80.260 C 55.333 80.402,55.146 80.852,54.917 81.260 C 54.688 81.667,54.313 82.333,54.083 82.740 C 53.854 83.148,53.667 83.598,53.667 83.740 C 53.667 83.883,53.592 84.000,53.500 84.000 C 53.408 84.000,53.333 84.112,53.333 84.250 C 53.333 84.387,53.258 84.500,53.167 84.500 C 53.075 84.500,53.000 84.650,53.000 84.833 C 53.000 85.017,52.943 85.167,52.874 85.167 C 52.805 85.167,52.660 85.373,52.552 85.625 C 52.444 85.877,52.220 86.402,52.055 86.792 C 51.890 87.181,51.697 87.500,51.627 87.500 C 51.557 87.500,51.500 87.650,51.500 87.833 C 51.500 88.017,51.443 88.167,51.373 88.167 C 51.303 88.167,51.110 88.485,50.945 88.875 C 50.780 89.265,50.556 89.790,50.448 90.042 C 50.340 90.294,50.195 90.500,50.126 90.500 C 50.057 90.500,50.000 90.650,50.000 90.833 C 50.000 91.017,49.925 91.167,49.833 91.167 C 49.738 91.167,49.667 91.667,49.667 92.333 C 49.667 93.000,49.738 93.500,49.833 93.500 C 49.925 93.500,50.000 93.645,50.000 93.822 C 50.000 93.999,50.146 94.191,50.325 94.247 C 50.503 94.304,50.696 94.497,50.753 94.675 C 50.809 94.854,51.001 95.000,51.178 95.000 C 51.355 95.000,51.500 95.075,51.500 95.167 C 51.500 95.277,61.222 95.333,80.333 95.333 C 99.444 95.333,109.167 95.277,109.167 95.167 C 109.167 95.075,109.240 95.000,109.329 95.000 C 109.536 95.000,111.000 93.651,111.000 93.461 C 111.000 93.382,111.337 92.975,111.750 92.557 C 112.162 92.138,112.500 91.728,112.500 91.645 C 112.500 91.562,112.763 91.239,113.083 90.928 C 113.404 90.616,113.667 90.272,113.667 90.163 C 113.667 90.054,113.854 89.817,114.083 89.637 C 114.313 89.457,114.500 89.199,114.500 89.064 C 114.500 88.929,114.669 88.645,114.875 88.434 C 115.506 87.787,116.000 87.105,116.000 86.880 C 116.000 86.763,116.075 86.667,116.167 86.667 C 116.258 86.667,116.333 86.568,116.333 86.448 C 116.333 86.328,116.483 86.069,116.667 85.872 C 116.850 85.675,117.000 85.445,117.000 85.361 C 117.000 85.276,117.112 85.114,117.250 85.000 C 117.388 84.886,117.500 84.652,117.500 84.480 C 117.500 84.307,117.575 84.167,117.667 84.167 C 117.758 84.167,117.833 84.089,117.833 83.993 C 117.833 83.898,117.983 83.658,118.167 83.462 C 118.350 83.265,118.500 83.005,118.500 82.885 C 118.500 82.765,118.583 82.667,118.684 82.667 C 118.786 82.667,118.826 82.554,118.773 82.417 C 118.720 82.279,118.750 82.167,118.839 82.167 C 118.927 82.167,119.000 82.017,119.000 81.833 C 119.000 81.650,119.075 81.500,119.167 81.500 C 119.258 81.500,119.333 81.350,119.333 81.167 C 119.333 80.983,119.400 80.833,119.480 80.833 C 119.665 80.833,120.500 79.147,120.500 78.775 C 120.500 78.624,120.575 78.500,120.667 78.500 C 120.758 78.500,120.833 78.350,120.833 78.167 C 120.833 77.983,120.908 77.833,121.000 77.833 C 121.092 77.833,121.167 77.721,121.167 77.583 C 121.167 77.446,121.242 77.333,121.333 77.333 C 121.425 77.333,121.500 77.192,121.500 77.019 C 121.500 76.846,121.612 76.490,121.749 76.227 C 121.886 75.965,121.998 75.619,121.999 75.458 C 122.000 75.298,122.075 75.167,122.167 75.167 C 122.258 75.167,122.333 74.979,122.333 74.750 C 122.333 74.521,122.408 74.333,122.500 74.333 C 122.592 74.333,122.667 74.108,122.667 73.833 C 122.667 73.558,122.742 73.333,122.833 73.333 C 122.925 73.333,123.000 73.152,123.000 72.931 C 123.000 72.709,123.076 72.502,123.170 72.471 C 123.263 72.440,123.386 72.021,123.443 71.541 C 123.500 71.060,123.611 70.667,123.690 70.667 C 123.769 70.667,123.833 70.479,123.833 70.250 C 123.833 70.021,123.908 69.833,124.000 69.833 C 124.092 69.833,124.167 69.608,124.167 69.333 C 124.167 69.058,124.242 68.833,124.333 68.833 C 124.425 68.833,124.500 68.571,124.500 68.250 C 124.500 67.929,124.569 67.667,124.652 67.667 C 124.736 67.667,124.858 67.103,124.922 66.414 C 124.987 65.725,125.106 65.121,125.186 65.071 C 125.267 65.021,125.333 64.689,125.333 64.333 C 125.333 63.977,125.408 63.640,125.500 63.583 C 125.592 63.527,125.667 63.162,125.667 62.773 C 125.667 62.385,125.735 61.995,125.819 61.908 C 125.903 61.821,126.013 61.300,126.063 60.750 C 126.112 60.200,126.238 58.813,126.341 57.667 C 126.576 55.050,126.449 44.049,126.181 43.781 C 126.081 43.681,126.000 43.207,126.000 42.727 C 126.000 42.246,125.925 41.807,125.833 41.750 C 125.742 41.693,125.667 41.239,125.667 40.740 C 125.667 40.241,125.592 39.833,125.500 39.833 C 125.408 39.833,125.333 39.496,125.333 39.083 C 125.333 38.671,125.267 38.333,125.186 38.333 C 125.105 38.333,124.986 37.771,124.922 37.083 C 124.858 36.396,124.736 35.833,124.652 35.833 C 124.569 35.833,124.500 35.571,124.500 35.250 C 124.500 34.929,124.425 34.667,124.333 34.667 C 124.242 34.667,124.167 34.446,124.167 34.177 C 124.167 33.907,124.092 33.640,124.000 33.583 C 123.908 33.527,123.833 33.260,123.833 32.990 C 123.833 32.721,123.765 32.500,123.682 32.500 C 123.599 32.500,123.480 32.125,123.417 31.667 C 123.354 31.208,123.234 30.833,123.151 30.833 C 123.068 30.833,123.000 30.650,123.000 30.427 C 123.000 30.203,122.925 29.973,122.833 29.917 C 122.742 29.860,122.667 29.631,122.667 29.407 C 122.667 29.183,122.592 29.000,122.500 29.000 C 122.408 29.000,122.333 28.850,122.333 28.667 C 122.333 28.483,122.258 28.333,122.167 28.333 C 122.075 28.333,122.000 28.184,122.000 28.001 C 122.000 27.590,121.468 26.333,121.294 26.333 C 121.224 26.333,121.167 26.108,121.167 25.833 C 121.167 25.558,121.092 25.333,121.000 25.333 C 120.908 25.333,120.833 25.221,120.833 25.083 C 120.833 24.946,120.758 24.833,120.667 24.833 C 120.575 24.833,120.500 24.721,120.500 24.584 C 120.500 24.237,119.949 23.000,119.794 23.000 C 119.724 23.000,119.667 22.850,119.667 22.667 C 119.667 22.483,119.592 22.333,119.500 22.333 C 119.408 22.333,119.333 22.221,119.333 22.083 C 119.333 21.946,119.258 21.833,119.167 21.833 C 119.075 21.833,119.000 21.689,119.000 21.512 C 119.000 21.335,118.888 21.078,118.750 20.940 C 118.612 20.803,118.500 20.610,118.500 20.512 C 118.500 20.414,118.425 20.333,118.333 20.333 C 118.242 20.333,118.167 20.183,118.167 20.000 C 118.167 19.817,118.092 19.667,118.000 19.667 C 117.908 19.667,117.833 19.525,117.833 19.351 C 117.833 19.178,117.721 18.992,117.583 18.940 C 117.446 18.887,117.333 18.730,117.333 18.590 C 117.333 18.358,117.073 17.970,116.542 17.410 C 116.427 17.289,116.333 17.073,116.333 16.929 C 116.333 16.785,116.263 16.667,116.178 16.667 C 116.092 16.667,115.980 16.535,115.929 16.375 C 115.877 16.215,115.610 15.821,115.335 15.500 C 115.059 15.179,114.834 14.831,114.834 14.726 C 114.834 14.621,114.721 14.492,114.583 14.440 C 114.446 14.387,114.333 14.240,114.333 14.113 C 114.333 13.987,114.108 13.647,113.833 13.360 C 113.558 13.072,113.333 12.799,113.333 12.753 C 113.333 12.634,112.652 11.841,112.208 11.443 C 112.002 11.258,111.833 11.035,111.833 10.948 C 111.833 10.860,111.383 10.347,110.833 9.807 C 110.283 9.267,109.833 8.761,109.833 8.682 C 109.833 8.497,106.690 5.333,106.506 5.333 C 106.431 5.333,105.802 4.771,105.110 4.083 C 104.418 3.396,103.807 2.833,103.752 2.833 C 103.642 2.833,103.351 2.604,102.750 2.042 C 102.529 1.835,102.304 1.667,102.250 1.667 C 102.196 1.667,101.971 1.498,101.750 1.292 C 101.091 0.675,100.856 0.500,100.688 0.500 C 100.600 0.500,100.498 0.410,100.461 0.301 C 100.393 0.096,97.621 -0.054,96.883 0.108 M17.833 8.145 C 17.833 8.225,17.546 8.337,17.196 8.393 C 16.637 8.482,15.500 9.393,15.500 9.751 C 15.500 9.802,15.256 10.094,14.958 10.400 C 14.660 10.706,14.267 11.165,14.083 11.420 C 13.900 11.676,13.563 12.097,13.333 12.356 C 12.602 13.182,12.500 13.316,12.500 13.456 C 12.500 13.531,12.350 13.701,12.167 13.833 C 11.983 13.965,11.833 14.137,11.833 14.215 C 11.833 14.293,11.740 14.462,11.625 14.589 C 11.116 15.157,11.000 15.333,11.000 15.536 C 11.000 15.656,10.850 15.847,10.667 15.961 C 10.483 16.076,10.333 16.281,10.333 16.418 C 10.333 16.555,10.263 16.667,10.178 16.667 C 10.092 16.667,9.971 16.830,9.908 17.029 C 9.844 17.228,9.652 17.542,9.480 17.727 C 9.307 17.912,9.167 18.161,9.167 18.281 C 9.167 18.402,9.108 18.500,9.037 18.500 C 8.966 18.500,8.760 18.837,8.579 19.248 C 8.398 19.660,8.194 19.998,8.125 19.998 C 8.056 19.999,8.000 20.112,8.000 20.250 C 8.000 20.387,7.925 20.500,7.833 20.500 C 7.742 20.500,7.667 20.650,7.667 20.833 C 7.667 21.017,7.599 21.167,7.517 21.167 C 7.434 21.167,7.228 21.504,7.058 21.916 C 6.889 22.328,6.694 22.666,6.625 22.666 C 6.556 22.666,6.500 22.810,6.500 22.986 C 6.500 23.162,6.440 23.331,6.367 23.361 C 6.197 23.432,5.551 24.818,5.399 25.440 C 5.335 25.702,5.236 25.954,5.180 26.000 C 5.079 26.084,4.601 27.053,4.101 28.192 C 3.954 28.527,3.833 28.958,3.833 29.150 C 3.833 29.343,3.758 29.500,3.667 29.500 C 3.575 29.500,3.500 29.725,3.500 30.000 C 3.500 30.275,3.425 30.500,3.333 30.500 C 3.242 30.500,3.167 30.646,3.167 30.823 C 3.167 31.001,3.092 31.193,3.000 31.250 C 2.908 31.307,2.833 31.574,2.833 31.843 C 2.833 32.113,2.765 32.333,2.682 32.333 C 2.599 32.333,2.480 32.708,2.417 33.166 C 2.354 33.625,2.234 34.042,2.151 34.093 C 2.068 34.144,2.000 34.444,2.000 34.760 C 2.000 35.075,1.925 35.333,1.833 35.333 C 1.742 35.333,1.667 35.596,1.667 35.917 C 1.667 36.237,1.592 36.500,1.500 36.500 C 1.408 36.500,1.333 36.758,1.333 37.073 C 1.333 37.389,1.264 37.690,1.179 37.742 C 1.094 37.795,0.972 38.513,0.907 39.339 C 0.843 40.165,0.725 40.881,0.645 40.930 C 0.565 40.979,0.500 41.421,0.500 41.913 C 0.500 42.479,0.424 42.831,0.292 42.875 C -0.013 42.977,-0.013 60.357,0.292 60.458 C 0.427 60.503,0.500 60.873,0.500 61.514 C 0.500 62.056,0.567 62.500,0.649 62.500 C 0.731 62.500,0.851 63.175,0.917 64.000 C 0.982 64.825,1.102 65.500,1.184 65.500 C 1.266 65.500,1.333 65.796,1.333 66.157 C 1.333 66.518,1.408 66.860,1.500 66.917 C 1.592 66.973,1.667 67.240,1.667 67.510 C 1.667 67.779,1.742 68.000,1.833 68.000 C 1.925 68.000,2.000 68.262,2.000 68.583 C 2.000 68.904,2.065 69.167,2.145 69.167 C 2.225 69.167,2.342 69.559,2.406 70.038 C 2.469 70.516,2.576 70.985,2.643 71.079 C 2.709 71.173,2.859 71.550,2.976 71.917 C 3.199 72.615,3.439 73.219,3.686 73.706 C 3.767 73.865,3.833 74.116,3.833 74.264 C 3.833 74.518,3.944 74.803,4.667 76.417 C 5.389 78.029,5.500 78.315,5.500 78.567 C 5.500 78.713,5.575 78.833,5.667 78.833 C 5.758 78.833,5.833 78.946,5.833 79.083 C 5.833 79.221,5.908 79.333,6.000 79.333 C 6.092 79.333,6.167 79.483,6.167 79.667 C 6.167 79.850,6.242 80.000,6.333 80.000 C 6.425 80.000,6.500 80.150,6.500 80.333 C 6.500 80.517,6.575 80.667,6.667 80.667 C 6.758 80.667,6.833 80.741,6.833 80.832 C 6.833 81.117,7.405 82.333,7.539 82.333 C 7.609 82.333,7.667 82.467,7.667 82.630 C 7.667 82.793,7.814 83.033,7.994 83.162 C 8.174 83.292,8.365 83.598,8.419 83.843 C 8.473 84.088,8.663 84.445,8.842 84.637 C 9.020 84.829,9.167 85.064,9.167 85.160 C 9.167 85.255,9.242 85.333,9.333 85.333 C 9.425 85.333,9.500 85.483,9.500 85.667 C 9.500 85.850,9.570 86.000,9.655 86.000 C 9.741 86.000,9.864 86.169,9.929 86.375 C 9.994 86.581,10.187 86.871,10.357 87.020 C 10.527 87.168,10.667 87.395,10.667 87.524 C 10.667 87.654,10.817 87.868,11.000 88.000 C 11.183 88.132,11.333 88.333,11.333 88.446 C 11.333 88.559,11.521 88.839,11.750 89.068 C 11.979 89.297,12.167 89.529,12.167 89.583 C 12.167 89.638,12.354 89.869,12.583 90.098 C 12.812 90.328,13.000 90.578,13.000 90.654 C 13.000 90.731,13.300 91.102,13.667 91.480 C 14.033 91.858,14.333 92.239,14.333 92.326 C 14.333 92.413,14.877 93.051,15.542 93.742 C 16.206 94.433,17.383 95.674,18.157 96.500 C 18.932 97.325,19.624 98.000,19.696 98.000 C 19.768 98.000,20.355 98.525,21.000 99.167 C 21.645 99.808,22.253 100.333,22.350 100.333 C 22.447 100.333,22.814 100.633,23.167 101.000 C 23.519 101.367,23.885 101.667,23.979 101.667 C 24.074 101.667,24.358 101.873,24.610 102.125 C 25.127 102.642,27.803 102.842,27.958 102.375 C 27.997 102.260,28.139 102.167,28.276 102.167 C 28.525 102.167,29.000 101.784,29.000 101.583 C 29.000 101.524,29.112 101.364,29.250 101.226 C 29.387 101.089,29.500 100.832,29.500 100.655 C 29.500 100.478,29.557 100.333,29.626 100.333 C 29.695 100.333,29.858 100.090,29.988 99.792 C 30.117 99.494,30.271 99.212,30.329 99.167 C 30.510 99.023,31.000 97.879,31.000 97.600 C 31.000 97.453,31.075 97.333,31.167 97.333 C 31.258 97.333,31.333 97.221,31.333 97.083 C 31.333 96.946,31.408 96.833,31.500 96.833 C 31.592 96.833,31.667 96.683,31.667 96.500 C 31.667 96.317,31.724 96.167,31.794 96.167 C 31.949 96.167,32.500 94.930,32.500 94.582 C 32.500 94.445,32.575 94.333,32.667 94.333 C 32.758 94.333,32.833 94.221,32.833 94.083 C 32.833 93.946,32.908 93.833,33.000 93.833 C 33.092 93.833,33.167 93.683,33.167 93.500 C 33.167 93.317,33.228 93.167,33.302 93.167 C 33.377 93.167,33.541 92.904,33.667 92.583 C 33.793 92.262,33.948 92.000,34.013 92.000 C 34.077 92.000,34.179 91.737,34.239 91.417 C 34.299 91.096,34.420 90.833,34.508 90.833 C 34.595 90.833,34.667 90.683,34.667 90.500 C 34.667 90.317,34.742 90.167,34.833 90.167 C 34.925 90.167,35.000 90.054,35.000 89.917 C 35.000 89.779,35.075 89.667,35.167 89.667 C 35.258 89.667,35.333 89.517,35.333 89.333 C 35.333 89.150,35.408 89.000,35.500 89.000 C 35.592 89.000,35.667 88.883,35.667 88.740 C 35.667 88.492,36.049 87.740,36.800 86.512 C 36.992 86.197,37.111 85.879,37.065 85.803 C 37.018 85.728,37.060 85.667,37.157 85.667 C 37.254 85.667,37.333 85.517,37.333 85.333 C 37.333 85.150,37.408 85.000,37.500 85.000 C 37.592 85.000,37.667 84.887,37.667 84.750 C 37.667 84.612,37.742 84.500,37.833 84.500 C 37.925 84.500,38.000 84.350,38.000 84.167 C 38.000 83.983,38.058 83.833,38.130 83.833 C 38.201 83.833,38.405 83.458,38.583 83.000 C 38.761 82.542,38.965 82.167,39.037 82.167 C 39.108 82.167,39.167 82.017,39.167 81.833 C 39.167 81.650,39.242 81.500,39.333 81.500 C 39.425 81.500,39.500 81.350,39.500 81.167 C 39.500 80.983,39.557 80.833,39.627 80.833 C 39.761 80.833,40.333 79.617,40.333 79.332 C 40.333 79.241,40.408 79.167,40.500 79.167 C 40.592 79.167,40.667 79.017,40.667 78.833 C 40.667 78.650,40.742 78.500,40.833 78.500 C 40.925 78.500,41.000 78.350,41.000 78.167 C 41.000 77.983,41.066 77.833,41.147 77.833 C 41.228 77.833,41.349 77.665,41.416 77.458 C 41.484 77.252,41.559 77.046,41.583 77.000 C 41.608 76.954,41.683 76.748,41.750 76.542 C 41.817 76.335,41.938 76.167,42.019 76.167 C 42.100 76.167,42.167 76.017,42.167 75.833 C 42.167 75.650,42.242 75.500,42.333 75.500 C 42.425 75.500,42.500 75.350,42.500 75.167 C 42.500 74.983,42.557 74.833,42.627 74.833 C 42.761 74.833,43.333 73.617,43.333 73.332 C 43.333 73.241,43.408 73.167,43.500 73.167 C 43.592 73.167,43.667 73.096,43.667 73.009 C 43.667 72.922,43.929 72.403,44.250 71.856 C 44.571 71.308,44.833 70.742,44.833 70.597 C 44.833 70.452,44.894 70.333,44.969 70.333 C 45.043 70.333,45.207 70.071,45.333 69.750 C 45.459 69.429,45.623 69.167,45.698 69.167 C 45.772 69.167,45.836 69.035,45.839 68.875 C 45.842 68.715,45.954 68.438,46.089 68.260 C 46.223 68.082,46.333 67.801,46.333 67.635 C 46.333 67.469,46.408 67.333,46.500 67.333 C 46.592 67.333,46.667 67.221,46.667 67.083 C 46.667 66.946,46.742 66.833,46.833 66.833 C 46.925 66.833,47.000 66.683,47.000 66.500 C 47.000 66.317,47.057 66.167,47.127 66.167 C 47.282 66.167,47.833 64.930,47.833 64.582 C 47.833 64.445,47.908 64.333,48.000 64.333 C 48.092 64.333,48.167 64.221,48.167 64.083 C 48.167 63.946,48.242 63.833,48.333 63.833 C 48.425 63.833,48.500 63.683,48.500 63.500 C 48.500 63.317,48.557 63.167,48.627 63.167 C 48.782 63.167,49.333 61.930,49.333 61.582 C 49.333 61.445,49.408 61.333,49.500 61.333 C 49.592 61.333,49.667 61.221,49.667 61.083 C 49.667 60.946,49.742 60.833,49.833 60.833 C 49.925 60.833,50.000 60.683,50.000 60.500 C 50.000 60.317,50.057 60.167,50.126 60.167 C 50.195 60.167,50.355 59.923,50.480 59.625 C 50.810 58.841,51.062 58.337,51.499 57.583 C 52.156 56.451,52.331 56.091,52.332 55.875 C 52.333 55.760,52.408 55.667,52.500 55.667 C 52.592 55.667,52.667 55.517,52.667 55.333 C 52.667 55.150,52.742 55.000,52.833 55.000 C 52.925 55.000,53.000 54.887,53.000 54.750 C 53.000 54.612,53.075 54.500,53.167 54.500 C 53.258 54.500,53.336 54.369,53.339 54.208 C 53.342 54.048,53.454 53.771,53.589 53.593 C 53.723 53.415,53.833 53.134,53.833 52.968 C 53.833 52.802,53.894 52.667,53.969 52.667 C 54.043 52.667,54.207 52.404,54.333 52.083 C 54.459 51.762,54.623 51.500,54.698 51.500 C 54.772 51.500,54.833 51.350,54.833 51.167 C 54.833 50.983,54.905 50.833,54.992 50.833 C 55.080 50.833,55.201 50.571,55.261 50.250 C 55.321 49.929,55.437 49.667,55.519 49.667 C 55.600 49.667,55.667 49.517,55.667 49.333 C 55.667 49.150,55.742 49.000,55.833 49.000 C 55.925 49.000,56.000 48.887,56.000 48.750 C 56.000 48.612,56.075 48.500,56.167 48.500 C 56.258 48.500,56.333 48.350,56.333 48.167 C 56.333 47.983,56.405 47.833,56.492 47.833 C 56.580 47.833,56.701 47.571,56.761 47.250 C 56.821 46.929,56.937 46.667,57.019 46.667 C 57.100 46.667,57.167 46.517,57.167 46.333 C 57.167 46.150,57.242 46.000,57.333 46.000 C 57.425 46.000,57.500 45.887,57.500 45.750 C 57.500 45.612,57.575 45.500,57.667 45.500 C 57.758 45.500,57.833 45.350,57.833 45.167 C 57.833 44.983,57.908 44.833,58.000 44.833 C 58.092 44.833,58.167 44.702,58.168 44.542 C 58.168 44.381,58.318 44.025,58.500 43.750 C 58.682 43.475,59.075 42.762,59.374 42.167 C 59.672 41.571,59.973 41.058,60.042 41.028 C 60.110 40.997,60.167 40.835,60.167 40.667 C 60.167 40.499,60.226 40.336,60.298 40.306 C 60.460 40.237,61.333 38.455,61.333 38.192 C 61.333 38.086,61.408 38.000,61.500 38.000 C 61.592 38.000,61.667 37.850,61.667 37.667 C 61.667 37.483,61.728 37.333,61.802 37.333 C 61.877 37.333,62.041 37.071,62.167 36.750 C 62.293 36.429,62.448 36.167,62.513 36.167 C 62.577 36.167,62.679 35.904,62.739 35.583 C 62.799 35.262,62.920 35.000,63.008 35.000 C 63.095 35.000,63.167 34.850,63.167 34.667 C 63.167 34.483,63.242 34.333,63.333 34.333 C 63.425 34.333,63.500 34.221,63.500 34.083 C 63.500 33.946,63.575 33.833,63.667 33.833 C 63.758 33.833,63.833 33.683,63.833 33.500 C 63.833 33.317,63.900 33.167,63.981 33.167 C 64.063 33.167,64.179 32.904,64.239 32.583 C 64.299 32.262,64.420 32.000,64.508 32.000 C 64.595 32.000,64.667 31.850,64.667 31.667 C 64.667 31.483,64.742 31.333,64.833 31.333 C 64.925 31.333,65.000 31.221,65.000 31.083 C 65.000 30.946,65.075 30.833,65.167 30.833 C 65.258 30.833,65.333 30.683,65.333 30.500 C 65.333 30.317,65.408 30.167,65.500 30.167 C 65.592 30.167,65.667 30.034,65.667 29.872 C 65.667 29.710,65.840 29.316,66.053 28.997 C 66.265 28.678,66.734 27.817,67.094 27.083 C 67.455 26.350,67.806 25.725,67.875 25.694 C 67.944 25.664,68.000 25.501,68.000 25.333 C 68.000 25.165,68.056 25.003,68.125 24.972 C 68.313 24.888,69.167 23.206,69.167 22.918 C 69.167 22.780,69.242 22.667,69.333 22.667 C 69.425 22.667,69.500 22.517,69.500 22.333 C 69.500 22.150,69.575 22.000,69.667 22.000 C 69.758 22.000,69.833 21.887,69.833 21.750 C 69.833 21.613,69.908 21.500,70.000 21.500 C 70.092 21.500,70.169 21.369,70.172 21.208 C 70.175 21.048,70.287 20.771,70.422 20.593 C 70.557 20.415,70.667 20.134,70.667 19.968 C 70.667 19.802,70.742 19.667,70.833 19.667 C 70.925 19.667,71.000 19.517,71.000 19.333 C 71.000 19.150,71.075 19.000,71.167 19.000 C 71.258 19.000,71.333 18.887,71.333 18.750 C 71.333 18.612,71.408 18.500,71.500 18.500 C 71.592 18.500,71.667 18.350,71.667 18.167 C 71.667 17.983,71.738 17.833,71.826 17.833 C 71.913 17.833,72.034 17.571,72.094 17.250 C 72.155 16.929,72.270 16.667,72.352 16.667 C 72.433 16.667,72.500 16.517,72.500 16.333 C 72.500 16.150,72.575 16.000,72.667 16.000 C 72.758 16.000,72.833 15.887,72.833 15.750 C 72.833 15.612,72.908 15.500,73.000 15.500 C 73.092 15.500,73.167 15.350,73.167 15.167 C 73.167 14.983,73.238 14.833,73.326 14.833 C 73.413 14.833,73.534 14.571,73.594 14.250 C 73.655 13.929,73.761 13.667,73.832 13.667 C 73.902 13.667,74.058 13.423,74.179 13.125 C 74.299 12.827,74.469 12.535,74.556 12.476 C 74.779 12.324,74.742 9.942,74.516 9.866 C 74.415 9.833,74.333 9.696,74.333 9.562 C 74.333 9.182,73.562 8.504,73.004 8.393 C 72.727 8.337,72.500 8.226,72.500 8.146 C 72.500 8.063,60.675 8.000,45.167 8.000 C 29.726 8.000,17.833 8.063,17.833 8.145 " stroke="none" fill="#3c94fc" fill-rule="evenodd"></path><path id="path1" d="M317.333 24.407 C 317.333 37.165,317.276 43.849,317.167 43.917 C 317.059 43.983,317.000 47.030,317.000 52.510 C 317.000 58.059,317.058 61.000,317.167 61.000 C 317.265 61.000,317.339 61.634,317.347 62.542 C 317.355 63.390,317.433 64.533,317.521 65.083 C 317.608 65.633,317.722 66.365,317.774 66.708 C 317.826 67.052,317.935 67.333,318.018 67.333 C 318.100 67.333,318.167 67.596,318.167 67.917 C 318.167 68.237,318.242 68.500,318.333 68.500 C 318.425 68.500,318.500 68.650,318.500 68.833 C 318.500 69.017,318.567 69.167,318.648 69.167 C 318.730 69.167,318.845 69.429,318.906 69.750 C 318.966 70.071,319.087 70.333,319.174 70.333 C 319.262 70.333,319.333 70.483,319.333 70.667 C 319.333 70.850,319.408 71.000,319.500 71.000 C 319.592 71.000,319.667 71.112,319.667 71.249 C 319.667 71.385,319.817 71.591,320.000 71.705 C 320.183 71.820,320.333 72.028,320.333 72.169 C 320.333 72.309,320.502 72.589,320.708 72.790 C 321.766 73.824,322.332 74.333,322.423 74.333 C 322.478 74.333,322.636 74.446,322.774 74.583 C 322.911 74.721,323.206 74.833,323.429 74.833 C 323.651 74.833,323.833 74.908,323.833 75.000 C 323.833 75.092,323.983 75.167,324.167 75.167 C 324.350 75.167,324.500 75.242,324.500 75.333 C 324.500 75.425,324.762 75.500,325.083 75.500 C 325.404 75.500,325.667 75.568,325.667 75.652 C 325.667 75.897,327.461 76.022,332.125 76.102 L 336.500 76.177 336.500 74.017 L 336.500 71.856 335.167 71.740 C 334.433 71.676,333.833 71.558,333.833 71.478 C 333.833 71.399,333.496 71.333,333.083 71.333 C 332.671 71.333,332.333 71.258,332.333 71.167 C 332.333 71.075,332.033 71.000,331.667 71.000 C 331.300 71.000,331.000 70.925,331.000 70.833 C 331.000 70.742,330.737 70.667,330.417 70.667 C 330.096 70.667,329.833 70.603,329.833 70.524 C 329.833 70.446,329.327 70.334,328.709 70.277 C 328.091 70.219,327.560 70.095,327.529 70.002 C 327.498 69.909,327.328 69.833,327.153 69.833 C 326.977 69.833,326.833 69.758,326.833 69.667 C 326.833 69.575,326.721 69.500,326.583 69.500 C 326.446 69.500,326.333 69.425,326.333 69.333 C 326.333 69.242,326.183 69.167,326.000 69.167 C 325.817 69.167,325.667 69.097,325.667 69.011 C 325.667 68.926,325.517 68.808,325.333 68.750 C 325.150 68.692,325.000 68.503,325.000 68.330 C 325.000 68.157,324.813 67.828,324.583 67.598 C 324.354 67.369,324.167 67.028,324.167 66.841 C 324.167 66.653,324.092 66.500,324.000 66.500 C 323.908 66.500,323.833 66.350,323.833 66.167 C 323.833 65.983,323.763 65.833,323.677 65.833 C 323.591 65.833,323.468 65.308,323.405 64.667 C 323.342 64.025,323.225 63.500,323.145 63.500 C 323.065 63.500,323.000 62.825,323.000 62.000 C 323.000 61.173,322.930 60.500,322.843 60.500 C 322.747 60.500,322.714 58.708,322.758 55.875 C 322.798 53.331,322.870 40.844,322.919 28.125 L 323.007 5.000 320.170 5.000 L 317.333 5.000 317.333 24.407 M218.167 12.655 C 218.167 12.740,217.998 12.834,217.792 12.863 C 217.504 12.904,217.404 13.043,217.364 13.458 C 217.336 13.756,217.242 14.000,217.156 14.000 C 217.064 14.000,217.000 15.341,217.000 17.250 C 217.000 19.144,217.065 20.500,217.155 20.500 C 217.240 20.500,217.334 20.663,217.363 20.862 C 217.578 22.325,224.167 22.237,224.167 20.772 C 224.167 20.623,224.242 20.500,224.333 20.500 C 224.439 20.500,224.500 19.250,224.500 17.083 C 224.500 14.917,224.439 13.667,224.333 13.667 C 224.242 13.667,224.167 13.518,224.167 13.337 C 224.167 13.123,224.019 12.969,223.750 12.902 C 223.521 12.844,223.333 12.730,223.333 12.649 C 223.333 12.567,222.171 12.500,220.750 12.500 C 219.268 12.500,218.167 12.566,218.167 12.655 M272.917 26.667 C 272.860 26.758,272.293 26.833,271.657 26.833 C 270.997 26.833,270.500 26.905,270.500 27.000 C 270.500 27.092,270.162 27.167,269.750 27.167 C 269.337 27.167,269.000 27.242,269.000 27.333 C 269.000 27.425,268.700 27.500,268.333 27.500 C 267.967 27.500,267.667 27.568,267.667 27.651 C 267.667 27.734,267.292 27.854,266.833 27.917 C 266.375 27.980,266.000 28.099,266.000 28.182 C 266.000 28.265,265.775 28.333,265.500 28.333 C 265.225 28.333,264.999 28.390,264.999 28.458 C 264.997 28.627,264.173 29.000,263.800 29.000 C 263.635 29.000,263.500 29.072,263.500 29.159 C 263.500 29.247,263.237 29.367,262.917 29.428 C 262.596 29.488,262.333 29.604,262.333 29.685 C 262.333 29.767,262.183 29.833,262.000 29.833 C 261.817 29.833,261.667 29.908,261.667 30.000 C 261.667 30.092,261.554 30.167,261.417 30.167 C 261.279 30.167,261.167 30.242,261.167 30.333 C 261.167 30.425,261.017 30.500,260.833 30.500 C 260.650 30.500,260.500 30.556,260.499 30.625 C 260.499 30.694,260.162 30.889,259.749 31.058 C 259.337 31.228,259.000 31.434,259.000 31.517 C 259.000 31.599,258.850 31.667,258.667 31.667 C 258.483 31.667,258.333 31.742,258.333 31.833 C 258.333 31.925,258.221 32.000,258.083 32.000 C 257.946 32.000,257.833 32.075,257.833 32.167 C 257.833 32.258,257.688 32.333,257.510 32.333 C 257.332 32.333,257.139 32.410,257.082 32.503 C 256.903 32.791,256.667 32.504,256.667 32.000 C 256.667 31.736,256.592 31.473,256.500 31.417 C 256.408 31.360,256.333 31.131,256.333 30.907 C 256.333 30.683,256.258 30.500,256.167 30.500 C 256.075 30.500,256.000 30.238,256.000 29.917 C 256.000 29.596,255.925 29.333,255.833 29.333 C 255.742 29.333,255.667 29.108,255.667 28.833 C 255.667 28.558,255.592 28.333,255.500 28.333 C 255.408 28.333,255.333 28.146,255.333 27.917 L 255.333 27.500 253.250 27.500 L 251.167 27.500 251.167 51.667 L 251.167 75.833 254.000 75.833 L 256.833 75.833 256.833 56.583 C 256.833 37.444,256.835 37.333,257.167 37.333 C 257.350 37.333,257.500 37.267,257.500 37.185 C 257.500 37.104,257.762 36.988,258.083 36.928 C 258.404 36.867,258.667 36.747,258.667 36.659 C 258.667 36.572,258.817 36.500,259.000 36.500 C 259.183 36.500,259.333 36.425,259.333 36.333 C 259.333 36.242,259.521 36.167,259.750 36.167 C 259.979 36.167,260.167 36.092,260.167 36.000 C 260.167 35.908,260.317 35.833,260.500 35.833 C 260.683 35.833,260.833 35.762,260.833 35.674 C 260.833 35.587,261.096 35.466,261.417 35.406 C 261.737 35.345,262.000 35.230,262.000 35.148 C 262.000 35.067,262.150 35.000,262.333 35.000 C 262.517 35.000,262.667 34.925,262.667 34.833 C 262.667 34.742,262.854 34.667,263.083 34.667 C 263.313 34.667,263.500 34.592,263.500 34.500 C 263.500 34.408,263.681 34.333,263.903 34.333 C 264.124 34.333,264.331 34.257,264.362 34.164 C 264.393 34.070,264.812 33.947,265.293 33.890 C 265.773 33.833,266.167 33.722,266.167 33.643 C 266.167 33.565,266.392 33.500,266.667 33.500 C 266.942 33.500,267.167 33.425,267.167 33.333 C 267.167 33.242,267.429 33.167,267.750 33.167 C 268.071 33.167,268.333 33.092,268.333 33.000 C 268.333 32.908,268.665 32.833,269.069 32.833 C 269.474 32.833,269.832 32.754,269.865 32.656 C 269.952 32.393,277.208 32.375,277.296 32.637 C 277.332 32.745,277.617 32.833,277.931 32.833 C 278.244 32.833,278.500 32.908,278.500 33.000 C 278.500 33.092,278.650 33.167,278.833 33.167 C 279.017 33.167,279.167 33.242,279.167 33.333 C 279.167 33.425,279.279 33.500,279.417 33.500 C 279.554 33.500,279.667 33.574,279.667 33.663 C 279.667 33.753,279.857 33.875,280.090 33.933 C 280.564 34.052,282.500 35.907,282.500 36.243 C 282.500 36.362,282.612 36.553,282.750 36.667 C 282.887 36.781,283.000 36.977,283.000 37.104 C 283.000 37.230,283.075 37.333,283.167 37.333 C 283.258 37.333,283.333 37.516,283.333 37.740 C 283.333 37.964,283.408 38.193,283.500 38.250 C 283.592 38.307,283.667 38.530,283.667 38.746 C 283.667 38.962,283.760 39.170,283.875 39.208 C 284.040 39.263,284.094 43.117,284.132 57.559 L 284.180 75.841 287.049 75.796 L 289.917 75.750 289.959 58.176 C 289.987 46.571,289.945 40.545,289.834 40.434 C 289.742 40.342,289.667 39.832,289.667 39.300 C 289.667 38.767,289.592 38.333,289.500 38.333 C 289.408 38.333,289.333 38.071,289.333 37.750 C 289.333 37.429,289.258 37.167,289.167 37.167 C 289.075 37.167,289.000 36.942,289.000 36.667 C 289.000 36.392,288.931 36.167,288.847 36.167 C 288.762 36.167,288.645 35.923,288.586 35.625 C 288.447 34.914,287.833 33.654,287.461 33.314 C 287.299 33.166,287.167 32.962,287.167 32.861 C 287.167 32.760,286.904 32.415,286.583 32.094 C 286.262 31.774,286.000 31.446,286.000 31.365 C 286.000 31.164,284.679 29.833,284.479 29.833 C 284.390 29.833,284.144 29.646,283.931 29.417 C 283.719 29.188,283.450 29.000,283.334 29.000 C 283.218 29.000,283.001 28.868,282.853 28.708 C 282.517 28.344,281.432 27.833,280.994 27.833 C 280.814 27.833,280.667 27.758,280.667 27.667 C 280.667 27.575,280.442 27.500,280.167 27.500 C 279.892 27.500,279.667 27.425,279.667 27.333 C 279.667 27.242,279.404 27.167,279.083 27.167 C 278.762 27.167,278.500 27.092,278.500 27.000 C 278.500 26.908,278.092 26.833,277.593 26.833 C 277.094 26.833,276.640 26.758,276.583 26.667 C 276.525 26.573,275.724 26.500,274.750 26.500 C 273.776 26.500,272.975 26.573,272.917 26.667 M156.667 30.000 L 156.667 32.833 170.995 32.833 C 186.910 32.833,185.735 32.742,184.636 33.892 C 184.378 34.162,184.167 34.443,184.167 34.517 C 184.167 34.591,183.979 34.839,183.750 35.068 C 183.521 35.297,183.333 35.529,183.333 35.583 C 183.333 35.637,183.146 35.883,182.917 36.131 C 182.688 36.378,182.500 36.638,182.500 36.708 C 182.500 36.779,182.275 37.072,182.000 37.360 C 181.725 37.647,181.500 37.952,181.500 38.037 C 181.500 38.121,181.406 38.295,181.292 38.423 C 180.831 38.937,180.667 39.158,180.667 39.265 C 180.667 39.327,180.529 39.499,180.361 39.647 C 180.193 39.795,179.912 40.142,179.736 40.417 C 179.418 40.915,179.254 41.128,178.542 41.972 C 178.336 42.217,178.167 42.500,178.167 42.602 C 178.167 42.703,177.979 42.927,177.750 43.100 C 177.521 43.272,177.333 43.488,177.333 43.581 C 177.333 43.674,177.146 43.968,176.916 44.234 C 176.687 44.501,176.500 44.771,176.500 44.835 C 176.500 44.898,176.275 45.186,176.000 45.474 C 175.725 45.762,175.500 46.041,175.500 46.094 C 175.500 46.147,175.406 46.295,175.292 46.423 C 174.811 46.959,174.667 47.160,174.667 47.296 C 174.667 47.375,174.474 47.608,174.238 47.813 C 174.002 48.017,173.734 48.403,173.641 48.669 C 173.548 48.935,173.328 49.199,173.153 49.254 C 172.977 49.310,172.833 49.467,172.833 49.602 C 172.833 49.738,172.646 50.036,172.417 50.265 C 172.188 50.494,172.000 50.761,172.000 50.857 C 172.000 50.954,171.775 51.243,171.500 51.500 C 171.225 51.757,171.000 52.017,171.000 52.079 C 171.000 52.140,170.906 52.295,170.792 52.423 C 170.276 52.998,170.167 53.168,170.167 53.398 C 170.167 53.534,170.024 53.690,169.849 53.745 C 169.675 53.800,169.401 54.124,169.240 54.464 C 169.079 54.805,168.810 55.181,168.641 55.301 C 168.472 55.421,168.333 55.593,168.333 55.684 C 168.333 55.774,168.146 56.036,167.917 56.265 C 167.688 56.494,167.500 56.761,167.500 56.857 C 167.500 56.954,167.275 57.243,167.000 57.500 C 166.725 57.757,166.500 58.017,166.500 58.079 C 166.500 58.140,166.406 58.295,166.292 58.423 C 165.776 58.998,165.667 59.168,165.667 59.398 C 165.667 59.534,165.524 59.690,165.349 59.745 C 165.175 59.800,164.916 60.091,164.774 60.390 C 164.632 60.689,164.362 61.073,164.174 61.243 C 163.987 61.413,163.833 61.618,163.833 61.700 C 163.833 61.782,163.646 62.036,163.417 62.265 C 163.188 62.494,163.000 62.735,163.000 62.799 C 163.000 62.864,162.826 63.118,162.614 63.365 C 162.402 63.612,162.083 64.014,161.906 64.259 C 161.728 64.503,161.490 64.802,161.375 64.923 C 161.260 65.044,161.167 65.256,161.167 65.394 C 161.167 65.531,161.021 65.691,160.842 65.747 C 160.663 65.804,160.473 65.988,160.420 66.155 C 160.335 66.424,160.156 66.677,159.503 67.451 C 159.410 67.562,159.333 67.703,159.333 67.765 C 159.333 67.827,159.197 67.999,159.030 68.147 C 158.863 68.295,158.584 68.660,158.411 68.958 C 158.237 69.256,158.036 69.500,157.964 69.500 C 157.892 69.500,157.833 70.850,157.833 72.500 L 157.833 75.500 175.250 75.500 L 192.667 75.500 192.667 72.667 L 192.667 69.833 179.087 69.833 L 165.508 69.833 165.677 69.389 C 165.770 69.145,165.993 68.817,166.173 68.661 C 166.353 68.505,166.500 68.329,166.500 68.271 C 166.500 68.212,166.725 67.928,167.000 67.640 C 167.275 67.353,167.500 67.059,167.500 66.987 C 167.500 66.916,167.594 66.758,167.708 66.636 C 168.201 66.115,169.167 64.763,169.167 64.596 C 169.167 64.496,169.317 64.320,169.500 64.205 C 169.683 64.091,169.833 63.919,169.833 63.824 C 169.833 63.729,170.021 63.464,170.250 63.235 C 170.479 63.006,170.667 62.739,170.667 62.643 C 170.667 62.546,170.892 62.257,171.167 62.000 C 171.442 61.743,171.667 61.469,171.667 61.390 C 171.667 61.311,171.854 61.044,172.083 60.797 C 172.313 60.550,172.500 60.250,172.500 60.131 C 172.500 60.011,172.648 59.821,172.828 59.709 C 173.009 59.596,173.282 59.259,173.436 58.960 C 173.590 58.661,173.855 58.295,174.025 58.147 C 174.194 57.999,174.333 57.827,174.333 57.765 C 174.333 57.703,174.521 57.450,174.750 57.203 C 174.979 56.956,175.167 56.675,175.167 56.580 C 175.167 56.485,175.317 56.299,175.500 56.167 C 175.683 56.035,175.833 55.844,175.833 55.742 C 175.833 55.641,176.021 55.382,176.250 55.167 C 176.479 54.951,176.667 54.668,176.667 54.538 C 176.667 54.407,176.892 54.090,177.167 53.833 C 177.442 53.576,177.667 53.318,177.667 53.259 C 177.667 53.157,177.835 52.932,178.292 52.423 C 178.406 52.295,178.500 52.138,178.500 52.073 C 178.500 52.009,178.639 51.834,178.809 51.686 C 178.978 51.538,179.243 51.173,179.396 50.875 C 179.550 50.577,179.736 50.333,179.809 50.333 C 179.883 50.333,180.050 50.127,180.180 49.875 C 180.310 49.623,180.585 49.245,180.792 49.034 C 180.998 48.824,181.167 48.559,181.167 48.446 C 181.167 48.333,181.317 48.132,181.500 48.000 C 181.683 47.868,181.833 47.698,181.833 47.622 C 181.833 47.547,182.021 47.297,182.250 47.068 C 182.479 46.839,182.667 46.505,182.667 46.326 C 182.667 46.147,182.730 46.000,182.808 46.000 C 183.033 46.000,183.667 45.396,183.667 45.182 C 183.667 45.074,183.854 44.783,184.083 44.536 C 184.313 44.289,184.500 44.029,184.500 43.959 C 184.500 43.888,184.725 43.595,185.000 43.307 C 185.275 43.019,185.500 42.723,185.500 42.650 C 185.500 42.576,185.688 42.328,185.917 42.098 C 186.146 41.869,186.333 41.638,186.333 41.584 C 186.333 41.530,186.521 41.283,186.750 41.036 C 186.979 40.789,187.167 40.460,187.167 40.305 C 187.167 40.149,187.317 39.975,187.500 39.917 C 187.683 39.858,187.833 39.722,187.834 39.614 C 187.834 39.505,188.021 39.199,188.250 38.932 C 188.479 38.666,188.667 38.396,188.667 38.332 C 188.667 38.268,188.892 37.981,189.167 37.693 C 189.442 37.405,189.667 37.126,189.667 37.073 C 189.667 37.020,189.760 36.872,189.875 36.744 C 190.391 36.168,190.500 35.998,190.500 35.768 C 190.500 35.633,190.643 35.477,190.817 35.422 C 190.992 35.366,191.266 35.043,191.426 34.702 C 191.587 34.362,191.857 33.962,192.026 33.814 C 192.195 33.666,192.333 33.459,192.333 33.355 C 192.333 33.252,192.408 33.167,192.500 33.167 C 192.605 33.167,192.667 32.056,192.667 30.167 L 192.667 27.167 174.667 27.167 L 156.667 27.167 156.667 30.000 M217.726 30.458 C 217.648 32.085,217.583 42.942,217.583 54.583 L 217.583 75.750 220.379 75.796 C 222.529 75.831,223.190 75.792,223.241 75.629 C 223.278 75.512,223.342 64.635,223.382 51.458 L 223.456 27.500 220.662 27.500 L 217.869 27.500 217.726 30.458 M374.667 27.641 C 374.667 27.719,373.828 27.830,372.802 27.889 C 371.777 27.948,370.862 28.072,370.769 28.165 C 370.676 28.257,370.428 28.333,370.217 28.333 C 370.006 28.333,369.833 28.408,369.833 28.500 C 369.833 28.592,369.571 28.667,369.250 28.667 C 368.929 28.667,368.667 28.742,368.667 28.833 C 368.667 28.925,368.517 29.000,368.333 29.000 C 368.150 29.000,368.000 29.075,368.000 29.167 C 368.000 29.258,367.847 29.333,367.660 29.333 C 367.199 29.333,366.110 29.905,365.599 30.416 C 365.370 30.645,365.099 30.833,364.998 30.833 C 364.744 30.833,362.333 33.250,362.333 33.505 C 362.333 33.618,362.198 33.832,362.033 33.980 C 361.722 34.260,361.167 35.330,361.167 35.650 C 361.167 35.751,361.092 35.833,361.000 35.833 C 360.908 35.833,360.833 35.983,360.833 36.167 C 360.833 36.350,360.758 36.500,360.667 36.500 C 360.575 36.500,360.500 36.688,360.500 36.917 C 360.500 37.146,360.425 37.333,360.333 37.333 C 360.242 37.333,360.167 37.558,360.167 37.833 C 360.167 38.108,360.097 38.333,360.012 38.333 C 359.927 38.333,359.806 38.746,359.743 39.250 C 359.680 39.754,359.562 40.167,359.481 40.167 C 359.400 40.167,359.333 40.504,359.333 40.917 C 359.333 41.329,359.258 41.667,359.167 41.667 C 359.074 41.667,359.000 42.111,359.000 42.667 C 359.000 43.217,358.931 43.667,358.846 43.667 C 358.587 43.667,358.475 46.299,358.477 52.333 C 358.478 58.481,358.595 61.333,358.845 61.333 C 358.930 61.333,359.000 61.704,359.000 62.157 C 359.000 62.610,359.075 63.027,359.167 63.083 C 359.258 63.140,359.333 63.444,359.333 63.760 C 359.333 64.075,359.408 64.333,359.500 64.333 C 359.592 64.333,359.670 64.577,359.674 64.875 C 359.678 65.173,359.789 65.717,359.921 66.083 C 360.054 66.450,360.163 66.881,360.164 67.042 C 360.166 67.202,360.242 67.333,360.333 67.333 C 360.425 67.333,360.500 67.483,360.500 67.667 C 360.500 67.850,360.575 68.000,360.667 68.000 C 360.758 68.000,360.833 68.150,360.833 68.333 C 360.833 68.517,360.893 68.667,360.967 68.667 C 361.040 68.667,361.194 68.927,361.309 69.245 C 361.424 69.563,361.701 69.968,361.926 70.144 C 362.150 70.320,362.333 70.555,362.333 70.666 C 362.333 70.941,364.759 73.333,365.037 73.333 C 365.160 73.333,365.368 73.483,365.500 73.667 C 365.632 73.850,365.836 74.000,365.953 74.000 C 366.071 74.000,366.167 74.075,366.167 74.167 C 366.167 74.258,366.271 74.333,366.398 74.333 C 366.525 74.333,366.843 74.445,367.106 74.582 C 367.369 74.719,367.752 74.832,367.958 74.832 C 368.165 74.833,368.333 74.908,368.333 75.000 C 368.333 75.092,368.483 75.167,368.667 75.167 C 368.850 75.167,369.000 75.242,369.000 75.333 C 369.000 75.425,369.262 75.500,369.583 75.500 C 369.904 75.500,370.167 75.575,370.167 75.667 C 370.167 75.758,370.498 75.833,370.903 75.833 C 371.308 75.833,371.664 75.910,371.696 76.004 C 371.728 76.100,372.702 76.219,373.960 76.279 C 375.173 76.337,376.167 76.448,376.167 76.526 C 376.167 76.603,377.629 76.667,379.417 76.667 C 381.204 76.667,382.667 76.603,382.667 76.525 C 382.667 76.448,383.697 76.332,384.956 76.269 C 386.215 76.206,387.318 76.082,387.406 75.994 C 387.494 75.906,387.777 75.833,388.033 75.833 C 388.290 75.833,388.500 75.758,388.500 75.667 C 388.500 75.575,388.688 75.500,388.917 75.500 C 389.146 75.500,389.333 75.425,389.333 75.333 C 389.333 75.242,389.596 75.167,389.917 75.167 C 390.238 75.167,390.500 75.100,390.500 75.019 C 390.500 74.937,390.762 74.821,391.083 74.761 C 391.404 74.701,391.667 74.580,391.667 74.492 C 391.667 74.405,391.817 74.333,392.000 74.333 C 392.183 74.333,392.333 74.258,392.333 74.167 C 392.333 74.075,392.445 74.000,392.582 74.000 C 392.719 74.000,392.924 73.850,393.039 73.667 C 393.153 73.483,393.362 73.333,393.502 73.333 C 393.642 73.333,393.922 73.165,394.125 72.958 C 394.816 72.253,395.330 71.750,395.748 71.369 C 395.978 71.160,396.167 70.859,396.167 70.701 C 396.167 70.543,396.317 70.320,396.500 70.205 C 396.683 70.091,396.833 69.885,396.833 69.749 C 396.833 69.612,396.908 69.500,397.000 69.500 C 397.092 69.500,397.167 69.350,397.167 69.167 C 397.167 68.983,397.236 68.833,397.320 68.833 C 397.404 68.833,397.526 68.590,397.591 68.292 C 397.656 67.994,397.755 67.712,397.813 67.667 C 398.035 67.488,398.333 66.822,398.333 66.502 C 398.333 66.318,398.408 66.167,398.500 66.167 C 398.592 66.167,398.667 65.979,398.667 65.750 C 398.667 65.521,398.737 65.333,398.822 65.333 C 398.907 65.333,399.029 64.733,399.093 64.000 C 399.157 63.267,399.275 62.667,399.355 62.667 C 399.435 62.667,399.500 62.260,399.500 61.764 C 399.500 61.190,399.576 60.836,399.708 60.792 C 399.871 60.737,399.917 58.946,399.917 52.583 C 399.917 46.220,399.871 44.429,399.708 44.375 C 399.571 44.329,399.500 43.944,399.500 43.236 C 399.500 42.648,399.435 42.167,399.355 42.167 C 399.275 42.167,399.157 41.567,399.093 40.833 C 399.029 40.100,398.907 39.500,398.822 39.500 C 398.737 39.500,398.667 39.237,398.667 38.917 C 398.667 38.596,398.592 38.333,398.500 38.333 C 398.408 38.333,398.333 38.183,398.333 38.000 C 398.333 37.817,398.258 37.667,398.167 37.667 C 398.075 37.667,398.000 37.479,398.000 37.250 C 398.000 37.021,397.925 36.833,397.833 36.833 C 397.742 36.833,397.667 36.721,397.667 36.584 C 397.667 36.237,397.115 35.000,396.961 35.000 C 396.891 35.000,396.833 34.850,396.833 34.667 C 396.833 34.483,396.758 34.333,396.667 34.333 C 396.575 34.333,396.500 34.253,396.500 34.155 C 396.500 34.057,396.406 33.874,396.292 33.749 C 396.177 33.623,395.859 33.254,395.585 32.927 C 395.311 32.601,394.992 32.333,394.877 32.333 C 394.761 32.333,394.667 32.261,394.667 32.172 C 394.667 32.084,394.408 31.765,394.092 31.464 C 393.268 30.678,393.036 30.500,392.840 30.500 C 392.745 30.500,392.667 30.440,392.667 30.366 C 392.667 30.191,391.076 29.333,390.751 29.333 C 390.613 29.333,390.500 29.258,390.500 29.167 C 390.500 29.075,390.313 29.000,390.083 29.000 C 389.854 29.000,389.667 28.925,389.667 28.833 C 389.667 28.742,389.442 28.667,389.167 28.667 C 388.892 28.667,388.667 28.592,388.667 28.500 C 388.667 28.408,388.410 28.333,388.097 28.333 C 387.784 28.333,387.503 28.261,387.472 28.172 C 387.442 28.083,386.573 27.959,385.542 27.897 C 384.510 27.834,383.667 27.719,383.667 27.642 C 383.667 27.564,381.642 27.500,379.167 27.500 C 376.692 27.500,374.667 27.564,374.667 27.641 M384.000 33.333 C 384.000 33.425,384.371 33.500,384.823 33.500 C 385.276 33.500,385.689 33.568,385.740 33.651 C 385.792 33.734,386.209 33.854,386.667 33.917 C 387.125 33.980,387.500 34.099,387.500 34.182 C 387.500 34.265,387.725 34.333,388.000 34.333 C 388.275 34.333,388.500 34.408,388.500 34.500 C 388.500 34.592,388.578 34.667,388.674 34.667 C 388.770 34.667,389.036 34.854,389.265 35.083 C 389.494 35.313,389.756 35.500,389.846 35.500 C 390.065 35.500,391.167 36.608,391.167 36.828 C 391.167 36.922,391.234 37.000,391.317 37.000 C 391.399 37.000,391.606 37.337,391.775 37.749 C 391.945 38.162,392.140 38.499,392.208 38.499 C 392.277 38.500,392.333 38.650,392.333 38.833 C 392.333 39.017,392.408 39.167,392.500 39.167 C 392.592 39.167,392.667 39.317,392.667 39.500 C 392.667 39.683,392.729 39.833,392.805 39.833 C 392.941 39.833,393.263 41.113,393.445 42.375 C 393.494 42.719,393.602 43.000,393.684 43.000 C 393.766 43.000,393.833 43.487,393.833 44.083 C 393.833 44.694,393.906 45.167,394.000 45.167 C 394.100 45.167,394.167 45.858,394.167 46.907 C 394.167 47.887,394.239 48.692,394.333 48.750 C 394.437 48.814,394.500 50.360,394.500 52.833 C 394.500 55.307,394.437 56.853,394.333 56.917 C 394.242 56.973,394.167 57.615,394.167 58.343 C 394.167 59.114,394.097 59.667,394.000 59.667 C 393.908 59.667,393.833 60.037,393.833 60.490 C 393.833 60.943,393.758 61.360,393.667 61.417 C 393.575 61.473,393.500 61.773,393.500 62.083 C 393.500 62.393,393.429 62.691,393.343 62.744 C 393.257 62.797,393.136 63.177,393.074 63.587 C 393.013 63.998,392.896 64.333,392.814 64.333 C 392.733 64.333,392.667 64.483,392.667 64.667 C 392.667 64.850,392.592 65.000,392.500 65.000 C 392.408 65.000,392.333 65.150,392.333 65.333 C 392.333 65.517,392.274 65.667,392.201 65.667 C 392.128 65.667,391.936 65.988,391.774 66.380 C 391.612 66.773,391.271 67.235,391.016 67.406 C 390.760 67.578,390.411 67.928,390.238 68.184 C 390.066 68.440,389.642 68.777,389.296 68.933 C 388.950 69.090,388.667 69.281,388.667 69.359 C 388.667 69.436,388.554 69.500,388.417 69.500 C 388.279 69.500,388.167 69.575,388.167 69.667 C 388.167 69.758,387.942 69.833,387.667 69.833 C 387.392 69.833,387.167 69.903,387.167 69.988 C 387.167 70.073,386.753 70.194,386.248 70.257 C 385.742 70.321,385.288 70.439,385.238 70.519 C 385.188 70.600,384.664 70.667,384.073 70.667 C 383.469 70.667,383.000 70.739,383.000 70.833 C 383.000 71.060,376.556 71.060,376.417 70.833 C 376.360 70.742,375.718 70.667,374.990 70.667 C 374.262 70.667,373.667 70.601,373.667 70.522 C 373.667 70.442,373.067 70.324,372.333 70.260 C 371.600 70.196,371.000 70.088,371.000 70.020 C 371.000 69.951,370.738 69.793,370.417 69.667 C 370.096 69.541,369.833 69.377,369.833 69.302 C 369.833 69.228,369.711 69.167,369.561 69.167 C 369.411 69.167,369.114 68.979,368.902 68.750 C 368.690 68.521,368.427 68.333,368.319 68.333 C 368.116 68.333,367.500 67.706,367.500 67.499 C 367.500 67.435,367.275 67.147,367.000 66.860 C 366.725 66.572,366.500 66.223,366.500 66.085 C 366.500 65.947,366.425 65.833,366.333 65.833 C 366.242 65.833,366.167 65.721,366.167 65.583 C 366.167 65.446,366.096 65.333,366.010 65.333 C 365.924 65.333,365.803 64.996,365.741 64.583 C 365.679 64.171,365.562 63.833,365.481 63.833 C 365.400 63.833,365.333 63.608,365.333 63.333 C 365.333 63.058,365.258 62.833,365.167 62.833 C 365.075 62.833,365.000 62.571,365.000 62.250 C 365.000 61.929,364.925 61.667,364.833 61.667 C 364.742 61.667,364.667 61.335,364.667 60.931 C 364.667 60.490,364.583 60.167,364.458 60.125 C 364.296 60.071,364.250 58.363,364.250 52.333 C 364.250 46.304,364.296 44.596,364.458 44.542 C 364.587 44.499,364.667 44.160,364.667 43.653 C 364.667 43.202,364.742 42.833,364.833 42.833 C 364.925 42.833,365.000 42.533,365.000 42.167 C 365.000 41.800,365.075 41.500,365.167 41.500 C 365.258 41.500,365.333 41.237,365.333 40.917 C 365.333 40.596,365.400 40.333,365.481 40.333 C 365.562 40.333,365.679 39.996,365.741 39.583 C 365.803 39.171,365.924 38.833,366.010 38.833 C 366.096 38.833,366.167 38.721,366.167 38.583 C 366.167 38.446,366.242 38.333,366.333 38.333 C 366.425 38.333,366.500 38.200,366.500 38.037 C 366.500 37.874,366.650 37.632,366.833 37.500 C 367.017 37.368,367.167 37.172,367.167 37.065 C 367.167 36.789,368.988 35.000,369.268 35.000 C 369.396 35.000,369.500 34.925,369.500 34.833 C 369.500 34.742,369.650 34.667,369.833 34.667 C 370.017 34.667,370.167 34.592,370.167 34.500 C 370.167 34.408,370.279 34.333,370.417 34.333 C 370.554 34.333,370.667 34.261,370.667 34.172 C 370.667 34.084,371.043 33.962,371.504 33.900 C 371.964 33.839,372.381 33.724,372.430 33.645 C 372.479 33.565,372.928 33.500,373.427 33.500 C 373.925 33.500,374.333 33.425,374.333 33.333 C 374.333 33.226,376.056 33.167,379.167 33.167 C 382.278 33.167,384.000 33.226,384.000 33.333 " stroke="none" fill="#0c2454" fill-rule="evenodd"></path><path id="path2" d="" stroke="none" fill="#2498d0" fill-rule="evenodd"></path><path id="path3" d="" stroke="none" fill="#2498d0" fill-rule="evenodd"></path><path id="path4" d="" stroke="none" fill="#2498d0" fill-rule="evenodd"></path></g></svg>