<svg xmlns="http://www.w3.org/2000/svg" width="1331.615" height="341.246" viewBox="0 0 1331.615 341.246">
  <g id="Group_12" data-name="Group 12" transform="translate(-525.01 -1797.846)">
    <path id="Path_267" data-name="Path 267" d="M696.024,1827.743l118.712.373-.052,17.089-92.257,124.418,91.866.29c.3.3-.055,17.09-.055,17.09l-114.115-.36.052-17.087,93.042-124.42-97.245-.3Z" transform="translate(351.236 61.423)" fill="#0f2757"/>
    <path id="Path_268" data-name="Path 268" d="M762,1817.911c.012-3.781,2.01-6.161,5.993-6.148l11.011.034c3.784.012,5.666,2.7,5.654,6.185l-.055,17.007c-.01,3.781-2.208,5.764-5.691,5.751l-11.014-.033a5.589,5.589,0,0,1-5.95-5.792Zm2.251,43.3,17.09.055-.5,159.184-17.09-.055Z" transform="translate(486.783 28.592)" fill="#0f2757"/>
    <path id="Path_269" data-name="Path 269" d="M799.564,1829.717l11.714.037,5.312,18.608c18.015-10.746,36.583-21.173,60.863-21.1,31.773.1,49.085,24.735,49,51.117l-.345,110.92-17.087-.055.345-110.917c.067-21.113-12.808-33.917-31.971-33.978-24.8-.08-38.037,5.98-60.848,17.307l-.4,127.294-17.087-.052Z" transform="translate(563.033 60.439)" fill="#0f2757"/>
    <path id="Path_270" data-name="Path 270" d="M871.568,1803.56l17.087.055-.559,178.069c-.1,33.214,10.755,37.61,20.535,39.635,0,0,23.037,5.345,25.129,5.351l-.036,11.815-24.24-.077c-23.794-.073-38.6-15.431-38.474-56.779Z" transform="translate(710.843 11.74)" fill="#0f2757"/>
    <path id="Path_271" data-name="Path 271" d="M984.812,1828.015c53.05.165,68.649,22.747,68.46,83.555-.183,58.75-16.424,78.787-68.967,78.622-53.355-.168-68.448-22.1-68.268-79.052.2-65.054,18.144-83.283,68.774-83.125m-.452,145.09c34.417.11,51.651-6.378,51.825-61.591.186-59.711-15.941-66.3-51.425-66.416-34.393-.107-51.447,4.658-51.636,66.093-.18,56.523,17.911,61.81,51.236,61.914" transform="translate(803.351 61.979)" fill="#0f2757"/>
    <path id="Path_272" data-name="Path 272" d="M772.058,1820.331,621.543,2115.383a9.212,9.212,0,0,1-13.764,3.189A210.285,210.285,0,0,1,579.706,1809.9a9.207,9.207,0,0,1,6.811-2.972h177.33a9.218,9.218,0,0,1,8.21,13.406" transform="translate(0 18.653)" fill="#3f94fd"/>
    <path id="Path_273" data-name="Path 273" d="M833.82,1970.023a209.284,209.284,0,0,1-54.788,141.48,9.219,9.219,0,0,1-6.808,2.965H588.712a9.216,9.216,0,0,1-8.2-13.415l152.586-298.165a9.224,9.224,0,0,1,13.589-3.311,210.009,210.009,0,0,1,87.138,170.445" transform="translate(111.912 0)" fill="#3f94fd"/>
  </g>
</svg>
